<svg width="3462" height="3461" viewBox="0 0 3462 3461" fill="none" xmlns="http://www.w3.org/2000/svg">
<path fill-rule="evenodd" clip-rule="evenodd" d="M1206.29 15.748C1138.19 93.6238 1084.69 177.214 1044.69 268.22C997.288 376.061 969.995 489.799 962.684 609.979C960.798 640.96 961.871 721.445 964.551 750.189C973.231 843.276 993.049 930.925 1023.81 1012.3C1027.06 1020.91 1029.73 1028.14 1029.73 1028.37C1029.73 1028.6 1026.03 1027.37 1021.51 1025.62C1003.11 1018.53 963.219 1005.21 941.485 998.911C801.071 958.22 649.99 949.208 506.971 972.993C348.523 999.344 203.906 1061.14 75.7169 1157.28C54.6607 1173.07 24.1814 1198.09 8.69714 1212.28L0.925781 1219.41L17.8256 1235.14C49.9772 1265.06 77.8347 1287.99 110.188 1311.18C118.891 1317.42 126.011 1322.93 126.011 1323.44C126.011 1323.94 118.891 1330.91 110.188 1338.93C89.7346 1357.77 61.3159 1386.96 44.6912 1406.2L31.5499 1421.42L39.8324 1429.2C53.2476 1441.8 84.2964 1467.37 106.537 1484.12C247.138 1590.02 415.232 1656.2 591.562 1675.07C658.808 1682.27 730.219 1682.49 797.256 1675.72C973.25 1657.95 1141.62 1592.6 1284.11 1486.75C1306 1470.49 1326.71 1453.93 1326.69 1452.7C1326.67 1451.56 1301.11 1419.69 1287.93 1404.38C1271.93 1385.77 1223.57 1337.88 1203.52 1320.77C1188.72 1308.15 1175.07 1297.21 1154.48 1281.48C1152.07 1279.64 1152.08 1279.6 1155.09 1277.08C1197.89 1241.37 1249.39 1189.84 1277.62 1154.49L1279.88 1151.67L1293.72 1169.58C1334.12 1221.87 1387.41 1275.54 1438.95 1315.83C1446.02 1321.36 1452.4 1325.87 1453.15 1325.87C1453.89 1325.87 1460.73 1318.06 1468.34 1308.5C1583.78 1163.69 1655.43 989.683 1675.93 804.35C1680.37 764.222 1681.44 743.014 1681.44 695.42C1681.43 648.227 1680.46 629.316 1675.95 587.737C1655.7 401.429 1581.78 223.797 1463.72 77.7444C1448.8 59.292 1424.1 30.8862 1422.97 30.8862C1419.22 30.8862 1354.33 92.7353 1332.31 117.3C1325.49 124.918 1323.95 126.097 1323 124.427C1320.68 120.346 1301.39 93.8782 1290.34 79.6126C1274.86 59.6243 1252.21 33.4178 1234.62 15.1395L1220.05 0L1206.29 15.748ZM2230.4 12.8209C2203.2 41.0952 2171.33 79.6162 2150.7 109.132C2144.34 118.232 2138.81 125.572 2138.4 125.445C2138 125.316 2131.92 118.913 2124.88 111.214C2107.53 92.2229 2072.94 58.5447 2055.19 43.3553C2047.17 36.497 2040.31 30.8862 2039.94 30.8862C2037.6 30.8862 1996.92 79.8024 1975.76 108.055C1870.3 248.893 1804.19 418.576 1786.27 594.401C1779.5 660.765 1779.5 734.116 1786.26 798.264C1806.17 987.066 1878.82 1163.97 1997.08 1311.57C2003.38 1319.44 2009.07 1325.87 2009.73 1325.87C2011.07 1325.87 2021.28 1318.26 2035.68 1306.53C2085.79 1265.68 2138.14 1211.52 2174.34 1163.04C2178.97 1156.84 2183.14 1152.19 2183.6 1152.71C2184.07 1153.23 2191.23 1161.58 2199.52 1171.27C2226.52 1202.82 2266.04 1241.96 2296.94 1267.77C2304.2 1273.84 2310.14 1279.18 2310.14 1279.65C2310.14 1280.11 2303.72 1285.36 2295.87 1291.32C2242 1332.18 2189.28 1384.45 2144.84 1441.08C2140.03 1447.2 2136.09 1452.49 2136.09 1452.83C2136.09 1453.72 2167.13 1478.29 2183.56 1490.42C2374.16 1631.08 2615.99 1698.39 2853.59 1676.93C3062.95 1658.02 3257.69 1574.49 3416.13 1435.64C3424.3 1428.49 3431.01 1422.31 3431.04 1421.91C3431.08 1421.51 3425.52 1414.66 3418.68 1406.69C3403.35 1388.83 3370.9 1355.58 3351.39 1337.75C3343.36 1330.4 3336.79 1323.97 3336.79 1323.46C3336.79 1322.94 3344.73 1316.84 3354.44 1309.9C3385.87 1287.41 3412.5 1265.45 3444.96 1235.24L3461.93 1219.45L3453.52 1211.71C3433.06 1192.86 3395.81 1162.88 3368.54 1143.3C3130.04 972.07 2822.2 916.944 2537.14 994.416C2514.49 1000.57 2460.31 1018.24 2441.14 1025.73C2433.79 1028.6 2432.88 1028.73 2433.66 1026.82C2439.57 1012.24 2453.12 973.01 2459.28 952.659C2478.4 889.431 2490.74 826.698 2497.53 758.1C2503.23 700.556 2502.99 627.861 2496.89 567.016C2480.87 407.164 2425.79 253.455 2336.59 119.734C2310.88 81.1826 2274.87 34.9075 2248.72 6.81819L2242.55 0.188685L2230.4 12.8209ZM1316.37 136.328C1293.93 162.496 1267.45 198.918 1247.03 231.707C1121.48 433.343 1089.48 678.16 1158.7 907.664C1182.41 986.283 1220.59 1065.32 1267.97 1133.9C1277.62 1147.86 1279.84 1150.41 1281.31 1149.19C1284.61 1146.45 1315.13 1105.04 1326.9 1087.32C1380.63 1006.49 1420.57 917.272 1444.04 825.649C1457.38 773.567 1463.83 735.416 1469.34 675.946C1471.39 653.838 1471.41 566.477 1469.37 543.283C1466.99 516.257 1462.03 477.907 1458.04 455.851C1437.69 343.12 1395.69 237.058 1332.72 139.371L1324.58 126.754L1316.37 136.328ZM2132.49 136.102C2112.23 166.118 2080.54 224.404 2063.96 262.134C1986.74 437.838 1970.55 635.121 2017.98 822.353C2046.58 935.259 2099.39 1043.57 2170.54 1135.25L2182.7 1150.93L2185 1148.03C2186.26 1146.44 2194.06 1135 2202.32 1122.62C2322.13 943.017 2365.93 725.228 2325.31 511.03C2305.48 406.401 2264.32 304.775 2205.8 215.885C2186.8 187.028 2162.63 154.732 2143.45 132.572L2138.63 127.001L2132.49 136.102ZM612.253 532.457C588.707 533.773 542.516 538.4 541.288 539.566C539.045 541.696 535.063 583.633 533.019 626.654C531.768 652.998 531.908 700.68 533.241 702.012C533.531 702.302 543.076 701.244 554.45 699.658C587.137 695.098 617.277 692.881 656.982 692.112L693.8 691.4V667.985C693.8 629.465 696.958 585.459 702.384 548.389C703.688 539.482 704.754 531.952 704.754 531.654C704.754 530.758 631.229 531.396 612.253 532.457ZM2758.78 532.119C2758.44 532.672 2758.95 538.012 2759.92 543.985C2765.26 576.909 2768.98 626.902 2768.99 665.714L2769 691.387L2807.03 692.147C2827.95 692.564 2854.38 693.743 2865.76 694.766C2885.99 696.586 2921.57 700.961 2926.83 702.278C2929.2 702.871 2929.57 702.317 2930.36 697.051C2931.48 689.586 2930.11 617.018 2928.47 596.835C2925.93 565.645 2923.16 541.975 2921.87 540.318C2920.3 538.321 2882.61 534.315 2846.9 532.351C2819.84 530.864 2759.66 530.706 2758.78 532.119ZM626.25 1123.34C622.902 1123.59 612.222 1124.38 602.516 1125.1C511.893 1131.79 415.867 1156.11 331.097 1193.84C294.198 1210.26 246.621 1236.48 211.818 1259.58C184.591 1277.65 129.039 1320.37 129.06 1323.22C129.068 1324.4 154.492 1340.7 175.913 1353.24C331.184 1444.18 515.715 1484.39 695.017 1466.36C834.436 1452.34 966.841 1405.72 1082.06 1330.07C1109.52 1312.04 1150.22 1281.85 1150.22 1279.52C1150.22 1277.79 1098.16 1243.83 1076.79 1231.61C970.206 1170.69 861.889 1137.07 733.357 1124.99C720.06 1123.74 637.901 1122.48 626.25 1123.34ZM2744.66 1123.91C2617.36 1132.39 2494.93 1169.12 2386.21 1231.46C2363.85 1244.28 2312.58 1277.82 2312.58 1279.63C2312.58 1281.1 2352.4 1310.99 2370.59 1323.16C2491.58 1404.14 2624.4 1452.03 2767.78 1466.36C2944.22 1483.99 3124.59 1445.77 3278.97 1358.03C3299.84 1346.17 3333.75 1324.67 3333.75 1323.31C3333.75 1321.81 3307.95 1300.54 3288.64 1286.11C3229.85 1242.18 3163.52 1205.41 3093.88 1178.16C3024.51 1151.02 2946.05 1132.69 2868.8 1125.6C2843.68 1123.29 2769.11 1122.28 2744.66 1123.91ZM653.026 1780.59C594.815 1784.13 550.956 1789.51 503.928 1798.89C366.737 1826.23 236.059 1882.97 123.577 1964.02C93.7827 1985.49 68.7026 2005.67 35.9766 2034.5L31.1409 2038.76L42.0622 2051.38C62.1241 2074.58 85.4722 2098.84 106.143 2117.97C117.405 2128.39 126.599 2137.23 126.575 2137.6C126.55 2137.98 121.483 2141.7 115.316 2145.87C87.8346 2164.47 44.0412 2200.4 16.0607 2227.3L1.04628 2241.74L17.8864 2256.46C109.228 2336.28 211.448 2397.37 322.937 2438.77C409.297 2470.83 494.912 2489.63 592.779 2498.02C617.391 2500.13 692.64 2500.86 719.968 2499.27C822.309 2493.27 918.276 2473.34 1011.36 2438.74C1021.02 2435.15 1029.16 2432.21 1029.46 2432.21C1029.75 2432.21 1029.6 2433.17 1029.12 2434.34C1028.65 2435.52 1024.44 2446.88 1019.78 2459.6C993.163 2532.22 973.719 2618.09 965.91 2697.54C959.877 2758.91 959.883 2831.31 965.926 2892.27C984.71 3081.8 1058.3 3262.25 1177.19 3410.29C1196.13 3433.87 1218.54 3459.44 1220.27 3459.44C1223.22 3459.44 1264.3 3413.88 1285.94 3386.62C1295.81 3374.19 1320.37 3341.08 1323.11 3336.51C1323.98 3335.07 1326.56 3337.25 1335.35 3346.86C1352.47 3365.55 1385.25 3397.58 1403.86 3413.8C1413.07 3421.83 1421.26 3428.76 1422.04 3429.2C1423.53 3430.03 1440.72 3411.06 1461.66 3385.47C1533.9 3297.2 1591.96 3192.47 1629.03 3083.58C1685.47 2917.82 1696.95 2741.55 1662.5 2569.49C1632.07 2417.47 1564.48 2272.29 1468 2151.7C1461.58 2143.68 1455.71 2136.31 1454.95 2135.33C1453.8 2133.83 1452.07 2134.7 1444.11 2140.78C1387.71 2183.91 1326.39 2246.07 1286.1 2300.95L1280.19 2309.01L1273.42 2300.93C1241.52 2262.88 1206.37 2227.38 1167.26 2193.7C1151.41 2180.05 1151.87 2180.2 1143.96 2186.02C1110.8 2210.41 1058.32 2241.03 1015.18 2261.16C818.565 2352.91 590.916 2362.98 386.476 2288.97C299.201 2257.37 216.61 2210.27 143.964 2150.66C135.763 2143.93 129.054 2137.99 129.054 2137.47C129.054 2135.08 175.838 2106.66 208.167 2089.41C287.581 2047.03 381.936 2015.62 474.109 2000.89C548.675 1988.97 629.718 1987.04 705.363 1995.37C863.001 2012.72 1014.87 2074.36 1139.08 2171.39C1145.34 2176.28 1150.98 2180.27 1151.61 2180.27C1153.36 2180.27 1175.39 2163.34 1195.32 2146.66C1231.48 2116.42 1264.96 2083.16 1295.65 2047C1309.77 2030.37 1326.73 2008.82 1326.65 2007.63C1326.45 2004.98 1271.59 1963.84 1242.12 1944.26C1204.86 1919.5 1177.42 1903.61 1137.21 1883.5C1024.27 1827.02 905.284 1793.92 775.347 1782.84C754.24 1781.04 670.845 1779.5 653.026 1780.59ZM2723.36 1780.64C2677.21 1783.34 2649.4 1786.1 2614.74 1791.44C2463.64 1814.7 2318.72 1873.66 2194.65 1962.35C2177.89 1974.33 2148.47 1996.81 2136.23 2006.99C2135.5 2007.59 2148.22 2024.15 2163.1 2041.97C2203.73 2090.63 2247.9 2132.79 2299.95 2172.56L2311.05 2181.04L2302.99 2187.65C2265.78 2218.14 2209.86 2274.34 2186.75 2304.47L2182.95 2309.42L2181.13 2306.64C2180.12 2305.12 2172.98 2295.82 2165.26 2285.99C2127.78 2238.26 2083.35 2193.01 2036.29 2154.61C2016.84 2138.75 2009.41 2133.45 2008.5 2134.8C2008.05 2135.46 2003.27 2141.45 1997.87 2148.1C1911.89 2254.05 1847.64 2381.7 1812.95 2515.49C1780.91 2639.05 1772.86 2767.07 1789.26 2892.27C1811.4 3061.28 1875.89 3219.61 1977.89 3355.38C1994.69 3377.75 2020.29 3408.84 2032.77 3422.03L2040.55 3430.26L2058.09 3414.84C2080.89 3394.79 2106.62 3369.67 2123.95 3350.54C2131.56 3342.13 2138.17 3335.4 2138.64 3335.58C2139.11 3335.76 2144.58 3343.03 2150.8 3351.73C2174.01 3384.17 2193.37 3407.77 2224.09 3441.05L2242.51 3461L2248.41 3454.44C2317.32 3377.83 2376.49 3286.79 2417.35 3194.51C2499.39 3009.2 2522.43 2801.52 2482.99 2602.6C2472.77 2551.04 2456.24 2492.9 2439.24 2448.7C2435.9 2440.02 2433.35 2432.75 2433.57 2432.53C2433.78 2432.32 2441.84 2435.09 2451.47 2438.71C2588.85 2490.23 2741.73 2510.19 2890.71 2496.06C3096.16 2476.57 3289.39 2392.82 3446.71 2255.07L3461.69 2241.95L3454.01 2234.12C3432.27 2211.93 3385.07 2172.43 3352.74 2149.35L3335.85 2137.29L3347.27 2126.96C3365.1 2110.84 3399.8 2075.49 3416.2 2056.74C3424.4 2047.37 3431.11 2039.35 3431.11 2038.92C3431.12 2037.64 3402.78 2013.22 3380.6 1995.4C3220.3 1866.61 3025.32 1792.54 2816.47 1781.09C2796.36 1779.98 2739.31 1779.71 2723.36 1780.64ZM2805.51 1991.17C2713.34 1997.42 2632.19 2014.31 2552.64 2043.8C2486.95 2068.15 2418.86 2103.66 2362.48 2142.95C2345.83 2154.55 2315.97 2177.04 2313.9 2179.55C2312.67 2181.02 2314.6 2182.86 2325.56 2190.62C2394.5 2239.46 2481.2 2280.92 2565.13 2305.2C2715.77 2348.78 2873.5 2349.09 3023.86 2306.1C3131.83 2275.23 3235.47 2220.39 3321.4 2148.66L3335.03 2137.29L3322.19 2129C3216.03 2060.37 3099.63 2016.66 2975.91 1998.94C2932.19 1992.68 2913.62 1991.4 2860.89 1991.04C2834.12 1990.86 2809.19 1990.92 2805.51 1991.17ZM1271.53 2321.76C1225.64 2387.73 1192.04 2454 1166.46 2528.97C1126.2 2647 1113.76 2772.23 1129.63 2899.58C1148.53 3051.2 1212.42 3198.62 1310.79 3317.53C1317.76 3325.96 1323.87 3332.86 1324.37 3332.86C1324.87 3332.86 1330.73 3324.24 1337.39 3313.69C1417.53 3186.85 1461.53 3049.32 1470.45 2897.75C1472 2871.27 1471.27 2806.29 1469.15 2783.35C1461.31 2698.41 1445.89 2627.79 1419.38 2555.45C1407.13 2522.02 1397.58 2500.07 1380.06 2465.07C1355.55 2416.12 1332.03 2378.09 1299.99 2335.66C1280.8 2310.24 1281.01 2310.5 1280.08 2310.5C1279.68 2310.5 1275.83 2315.57 1271.53 2321.76ZM2179.16 2313.92C2141.74 2361.5 2110.28 2410.73 2083.75 2463.25C2032.71 2564.25 2003.25 2669.87 1993.43 2787C1991.11 2814.73 1991.5 2894.74 1994.09 2922.7C2005.82 3049.17 2039.49 3161.13 2097.49 3266.53C2111.24 3291.51 2136.87 3332.79 2138.67 3332.84C2141.41 3332.92 2182.09 3280.21 2200.3 3252.99C2304.65 3096.96 2351.99 2916.11 2337.46 2728.94C2327.09 2595.28 2284.09 2466.01 2212.43 2353.1C2199.5 2332.73 2184.57 2311.4 2182.95 2310.97C2182.28 2310.79 2180.58 2312.12 2179.16 2313.92ZM532.704 2765.88C531.568 2776.74 531.775 2810.1 533.153 2838.11C534.86 2872.85 539.144 2919.37 540.784 2921.02C541.053 2921.29 545.605 2922.04 550.9 2922.7C589.191 2927.45 658.262 2930.86 686.998 2929.42L705.005 2928.52L704.262 2924.81C702.653 2916.76 698.563 2883.29 696.79 2863.67C695.762 2852.29 694.585 2826.21 694.175 2805.7L693.43 2768.42L661.057 2768.32C620.629 2768.19 583.476 2765.52 547.449 2760.16C540.927 2759.19 535.116 2758.39 534.538 2758.39C533.96 2758.39 533.135 2761.76 532.704 2765.88ZM2912.62 2760.35C2880.73 2765.37 2840.77 2768.22 2800.57 2768.33L2769 2768.42L2768.99 2794.75C2768.98 2834.23 2765.3 2883.99 2759.91 2917.18C2758.94 2923.17 2758.28 2928.21 2758.43 2928.37C2758.59 2928.52 2767.74 2929.02 2778.77 2929.46C2818.71 2931.08 2919.7 2924.57 2922.39 2920.21C2923.2 2918.91 2926.54 2887.6 2928.49 2863.06C2930.07 2843.14 2931.49 2768.74 2930.4 2762.92C2929.42 2757.69 2929.47 2757.7 2912.62 2760.35Z" fill="url(#paint0_linear_327_3)"/>
<defs>
<linearGradient id="paint0_linear_327_3" x1="3215" y1="3461" x2="507" y2="-0.000203058" gradientUnits="userSpaceOnUse">
<stop stop-color="#00FFFF"/>
<stop offset="1" stop-color="#23BDFF"/>
</linearGradient>
</defs>
</svg>
