<svg width="727" height="284" viewBox="0 0 727 284" fill="none" xmlns="http://www.w3.org/2000/svg">
<path d="M287.764 144.92C287.764 153.283 289.428 159.47 292.756 163.48C296.169 167.406 300.436 169.368 305.556 169.368C308.372 169.368 310.847 168.814 312.98 167.704C315.199 166.51 317.503 164.59 319.892 161.944V126.488C316.991 123.928 314.388 122.179 312.084 121.24C309.78 120.302 307.561 119.832 305.428 119.832C302.271 119.832 299.327 120.728 296.596 122.52C293.951 124.227 291.817 126.958 290.196 130.712C288.575 134.382 287.764 139.118 287.764 144.92ZM321.172 176.28L320.276 167.448C318.057 170.35 315.497 172.611 312.596 174.232C309.78 175.854 306.367 176.664 302.356 176.664C297.151 176.664 292.585 175.342 288.66 172.696C284.735 170.051 281.663 166.382 279.444 161.688C277.311 156.91 276.244 151.406 276.244 145.176C276.244 138.606 277.439 132.888 279.828 128.024C282.217 123.16 285.46 119.363 289.556 116.632C293.652 113.902 298.303 112.536 303.508 112.536C306.495 112.536 309.353 113.134 312.084 114.328C314.9 115.523 317.631 117.699 320.276 120.856V91.9282L309.396 90.6482V86.1682L329.364 80.4082L331.156 81.4322L330.644 99.6082V168.856L341.012 170.392V175L321.172 176.28Z" fill="#23BDFF"/>
<path d="M347.589 175V170.392L357.189 168.6C357.274 165.358 357.317 161.859 357.317 158.104C357.402 154.264 357.445 150.936 357.445 148.12V142.104C357.445 138.606 357.402 135.704 357.317 133.4C357.317 131.011 357.232 128.536 357.061 125.976L346.821 124.824V120.344L366.533 112.536L368.453 113.816L368.069 131.224V148.12C368.069 150.936 368.069 154.264 368.069 158.104C368.154 161.859 368.24 165.358 368.325 168.6L377.285 170.392V175H347.589ZM362.693 98.4562C360.304 98.4562 358.256 97.6882 356.549 96.1522C354.928 94.6162 354.117 92.6535 354.117 90.2642C354.117 87.7895 354.928 85.8269 356.549 84.3762C358.256 82.8402 360.304 82.0722 362.693 82.0722C365.082 82.0722 367.088 82.8402 368.709 84.3762C370.416 85.8269 371.269 87.7895 371.269 90.2642C371.269 92.6535 370.416 94.6162 368.709 96.1522C367.088 97.6882 365.082 98.4562 362.693 98.4562Z" fill="#23BDFF"/>
<path d="M434.482 176.28C431.41 176.28 428.85 175.384 426.802 173.592C424.754 171.8 423.474 169.411 422.962 166.424C419.463 169.838 416.391 172.398 413.746 174.104C411.101 175.811 407.901 176.664 404.146 176.664C399.453 176.664 395.399 175.342 391.986 172.696C388.658 169.966 386.994 165.955 386.994 160.664C386.994 158.19 387.549 155.886 388.658 153.752C389.853 151.619 391.986 149.528 395.058 147.48C398.13 145.432 402.525 143.384 408.242 141.336C410.205 140.654 412.466 139.928 415.026 139.16C417.586 138.392 420.146 137.71 422.706 137.112V133.912C422.706 127.683 421.767 123.544 419.89 121.496C418.013 119.448 414.941 118.424 410.674 118.424C409.735 118.424 408.669 118.467 407.474 118.552C406.365 118.638 405.127 118.851 403.762 119.192L401.33 127.512C400.135 131.608 397.917 133.656 394.674 133.656C391.09 133.656 389.085 131.907 388.658 128.408C389.853 123.544 392.669 119.704 397.106 116.888C401.629 113.987 407.133 112.536 413.618 112.536C420.359 112.536 425.351 114.243 428.594 117.656C431.837 120.984 433.458 126.702 433.458 134.808V162.072C433.458 164.803 433.885 166.766 434.738 167.96C435.591 169.07 436.701 169.624 438.066 169.624C439.175 169.624 440.114 169.368 440.882 168.856C441.65 168.344 442.375 167.662 443.058 166.808L445.618 169.624C444.082 172.099 442.375 173.848 440.498 174.872C438.706 175.811 436.701 176.28 434.482 176.28ZM398.386 158.744C398.386 162.158 399.367 164.59 401.33 166.04C403.293 167.491 405.725 168.216 408.626 168.216C409.906 168.216 411.101 168.046 412.21 167.704C413.405 167.363 414.813 166.723 416.434 165.784C418.055 164.76 420.146 163.31 422.706 161.432V141.848C420.487 142.446 418.311 143.128 416.178 143.896C414.045 144.579 412.295 145.176 410.93 145.688C407.261 147.139 404.53 148.632 402.738 150.168C400.946 151.704 399.751 153.198 399.154 154.648C398.642 156.099 398.386 157.464 398.386 158.744Z" fill="#23BDFF"/>
<path d="M450.854 175V170.392L460.326 168.6C460.411 165.358 460.454 161.859 460.454 158.104C460.539 154.35 460.582 151.022 460.582 148.12V141.976C460.582 138.478 460.539 135.576 460.454 133.272C460.454 130.968 460.369 128.536 460.198 125.976L450.086 124.824V120.344L468.006 112.536L469.926 113.816L470.95 124.184C473.937 120.771 477.435 117.998 481.446 115.864C485.457 113.646 489.425 112.536 493.35 112.536C497.361 112.536 500.603 113.475 503.078 115.352C505.638 117.23 507.473 120.302 508.582 124.568C511.825 120.558 515.451 117.571 519.462 115.608C523.473 113.56 527.569 112.536 531.75 112.536C536.955 112.536 540.966 114.286 543.782 117.784C546.683 121.283 548.134 127 548.134 134.936V148.12C548.134 151.022 548.134 154.35 548.134 158.104C548.219 161.859 548.305 165.358 548.39 168.6L557.35 170.392V175H527.654V170.392L537.126 168.6C537.211 165.443 537.254 161.987 537.254 158.232C537.339 154.392 537.382 151.022 537.382 148.12V136.984C537.382 131.011 536.529 127 534.822 124.952C533.115 122.819 530.385 121.752 526.63 121.752C523.985 121.752 521.254 122.35 518.438 123.544C515.707 124.739 512.721 126.83 509.478 129.816C509.563 130.755 509.606 131.779 509.606 132.888C509.691 133.912 509.734 135.022 509.734 136.216V148.12C509.734 151.022 509.734 154.35 509.734 158.104C509.819 161.859 509.905 165.358 509.99 168.6L518.95 170.392V175H489.254V170.392L498.726 168.6C498.811 165.443 498.854 161.987 498.854 158.232C498.939 154.392 498.982 151.022 498.982 148.12V137.24C498.982 131.438 498.171 127.427 496.55 125.208C494.929 122.904 492.241 121.752 488.486 121.752C485.585 121.752 482.811 122.35 480.166 123.544C477.521 124.739 474.619 126.702 471.462 129.432V148.12C471.462 150.936 471.462 154.264 471.462 158.104C471.547 161.859 471.633 165.358 471.718 168.6L480.55 170.392V175H450.854Z" fill="#23BDFF"/>
<path d="M614.357 176.28C611.285 176.28 608.725 175.384 606.677 173.592C604.629 171.8 603.349 169.411 602.837 166.424C599.338 169.838 596.266 172.398 593.621 174.104C590.976 175.811 587.776 176.664 584.021 176.664C579.328 176.664 575.274 175.342 571.861 172.696C568.533 169.966 566.869 165.955 566.869 160.664C566.869 158.19 567.424 155.886 568.533 153.752C569.728 151.619 571.861 149.528 574.933 147.48C578.005 145.432 582.4 143.384 588.117 141.336C590.08 140.654 592.341 139.928 594.901 139.16C597.461 138.392 600.021 137.71 602.581 137.112V133.912C602.581 127.683 601.642 123.544 599.765 121.496C597.888 119.448 594.816 118.424 590.549 118.424C589.61 118.424 588.544 118.467 587.349 118.552C586.24 118.638 585.002 118.851 583.637 119.192L581.205 127.512C580.01 131.608 577.792 133.656 574.549 133.656C570.965 133.656 568.96 131.907 568.533 128.408C569.728 123.544 572.544 119.704 576.981 116.888C581.504 113.987 587.008 112.536 593.493 112.536C600.234 112.536 605.226 114.243 608.469 117.656C611.712 120.984 613.333 126.702 613.333 134.808V162.072C613.333 164.803 613.76 166.766 614.613 167.96C615.466 169.07 616.576 169.624 617.941 169.624C619.05 169.624 619.989 169.368 620.757 168.856C621.525 168.344 622.25 167.662 622.933 166.808L625.493 169.624C623.957 172.099 622.25 173.848 620.373 174.872C618.581 175.811 616.576 176.28 614.357 176.28ZM578.261 158.744C578.261 162.158 579.242 164.59 581.205 166.04C583.168 167.491 585.6 168.216 588.501 168.216C589.781 168.216 590.976 168.046 592.085 167.704C593.28 167.363 594.688 166.723 596.309 165.784C597.93 164.76 600.021 163.31 602.581 161.432V141.848C600.362 142.446 598.186 143.128 596.053 143.896C593.92 144.579 592.17 145.176 590.805 145.688C587.136 147.139 584.405 148.632 582.613 150.168C580.821 151.704 579.626 153.198 579.029 154.648C578.517 156.099 578.261 157.464 578.261 158.744Z" fill="#23BDFF"/>
<path d="M652.474 176.664C648.037 176.664 644.495 175.47 641.85 173.08C639.205 170.691 637.882 167.022 637.882 162.072C637.882 160.451 637.882 158.872 637.882 157.336C637.967 155.715 638.01 153.667 638.01 151.192V120.984H627.386V115.352L638.778 113.944L642.106 96.7922H649.786L649.018 114.2H666.298V120.984H648.89V160.664C648.89 163.907 649.53 166.296 650.81 167.832C652.09 169.283 653.797 170.008 655.93 170.008C657.381 170.008 658.746 169.71 660.026 169.112C661.391 168.515 662.885 167.662 664.506 166.552L667.578 169.88C664.079 174.403 659.045 176.664 652.474 176.664Z" fill="#23BDFF"/>
<path d="M702.291 118.424C699.902 118.424 697.47 119.107 694.995 120.472C692.606 121.838 690.515 124.014 688.723 127C687.016 129.987 685.907 133.955 685.395 138.904H708.691C711.763 138.904 713.768 138.264 714.707 136.984C715.731 135.704 716.243 134.126 716.243 132.248C716.243 129.774 715.603 127.512 714.323 125.464C713.128 123.331 711.464 121.624 709.331 120.344C707.283 119.064 704.936 118.424 702.291 118.424ZM702.163 176.664C693.544 176.664 686.632 173.891 681.427 168.344C676.222 162.712 673.619 154.99 673.619 145.176C673.619 138.606 674.942 132.888 677.587 128.024C680.318 123.16 683.902 119.363 688.339 116.632C692.862 113.902 697.768 112.536 703.059 112.536C707.496 112.536 711.507 113.518 715.091 115.48C718.675 117.443 721.534 120.259 723.667 123.928C725.8 127.512 726.867 131.907 726.867 137.112C726.867 138.563 726.782 139.928 726.611 141.208C726.44 142.403 726.227 143.427 725.971 144.28H685.139C685.31 152.131 687.272 158.104 691.027 162.2C694.782 166.296 699.731 168.344 705.875 168.344C709.971 168.344 713.384 167.534 716.115 165.912C718.846 164.206 721.363 162.03 723.667 159.384L726.739 161.816C724.35 166.339 721.107 169.966 717.011 172.696C712.915 175.342 707.966 176.664 702.163 176.664Z" fill="#23BDFF"/>
<path d="M383.548 227.252C381.892 227.252 380.536 226.844 379.48 226.028C378.424 225.212 377.608 224.24 377.032 223.112H376.78V234.308H373.648V208.028H376.78V211.556H377.032C377.56 210.452 378.34 209.504 379.372 208.712C380.404 207.92 381.76 207.524 383.44 207.524C385.144 207.524 386.596 207.956 387.796 208.82C389.02 209.66 389.944 210.836 390.568 212.348C391.192 213.836 391.504 215.516 391.504 217.388C391.504 219.26 391.192 220.94 390.568 222.428C389.944 223.916 389.032 225.092 387.832 225.956C386.632 226.82 385.204 227.252 383.548 227.252ZM382.576 224.588C384.448 224.588 385.864 223.904 386.824 222.536C387.808 221.168 388.3 219.452 388.3 217.388C388.3 215.348 387.82 213.644 386.86 212.276C385.9 210.908 384.472 210.224 382.576 210.224C380.704 210.224 379.276 210.908 378.292 212.276C377.332 213.644 376.852 215.348 376.852 217.388C376.852 219.428 377.344 221.144 378.328 222.536C379.312 223.904 380.728 224.588 382.576 224.588Z" fill="#23BDFF"/>
<path d="M404.071 227.252C402.127 227.252 400.483 226.784 399.139 225.848C397.819 224.912 396.835 223.688 396.187 222.176C395.539 220.664 395.215 219.068 395.215 217.388C395.215 215.684 395.539 214.088 396.187 212.6C396.835 211.088 397.831 209.864 399.175 208.928C400.519 207.992 402.163 207.524 404.107 207.524C406.651 207.524 408.679 208.376 410.191 210.08C411.727 211.784 412.495 214.232 412.495 217.424V218.288H398.311V218.54C398.311 219.596 398.551 220.592 399.031 221.528C399.511 222.464 400.183 223.22 401.047 223.796C401.911 224.372 402.907 224.66 404.035 224.66C405.259 224.66 406.315 224.348 407.203 223.724C408.091 223.1 408.751 222.26 409.183 221.204H412.243C411.739 222.932 410.791 224.372 409.399 225.524C408.031 226.676 406.255 227.252 404.071 227.252ZM409.435 216.092C409.339 213.932 408.811 212.372 407.851 211.412C406.891 210.452 405.631 209.972 404.071 209.972C402.367 209.972 401.011 210.536 400.003 211.664C398.995 212.792 398.455 214.268 398.383 216.092H409.435Z" fill="#23BDFF"/>
<path d="M417.067 208.028H420.163V211.448H420.451C420.931 210.344 421.711 209.42 422.791 208.676C423.871 207.908 425.191 207.524 426.751 207.524C428.359 207.524 429.703 207.908 430.783 208.676C431.863 209.42 432.655 210.416 433.159 211.664C433.687 212.888 433.951 214.22 433.951 215.66V227H430.855V216.056C430.855 214.184 430.363 212.756 429.379 211.772C428.419 210.788 427.159 210.296 425.599 210.296C423.943 210.296 422.623 210.836 421.639 211.916C420.655 212.972 420.163 214.352 420.163 216.056V227H417.067V208.028Z" fill="#23BDFF"/>
<path d="M441.126 204.5C440.55 204.5 440.07 204.308 439.686 203.924C439.326 203.54 439.146 203.06 439.146 202.484C439.146 201.908 439.326 201.428 439.686 201.044C440.07 200.66 440.55 200.468 441.126 200.468C441.702 200.468 442.182 200.672 442.566 201.08C442.974 201.464 443.178 201.932 443.178 202.484C443.178 203.036 442.974 203.516 442.566 203.924C442.182 204.308 441.702 204.5 441.126 204.5ZM437.526 234.884C436.566 234.884 435.726 234.788 435.006 234.596V232.364C435.414 232.46 435.978 232.508 436.698 232.508C437.562 232.508 438.198 232.34 438.606 232.004C439.014 231.692 439.266 231.308 439.362 230.852C439.458 230.42 439.506 229.856 439.506 229.16V207.776H442.602L442.638 229.88C442.638 231.224 442.302 232.388 441.63 233.372C440.958 234.38 439.59 234.884 437.526 234.884Z" fill="#23BDFF"/>
<path d="M455.164 227.252C453.484 227.252 452.044 226.82 450.844 225.956C449.668 225.092 448.768 223.916 448.144 222.428C447.52 220.94 447.208 219.26 447.208 217.388C447.208 215.516 447.52 213.836 448.144 212.348C448.792 210.836 449.716 209.66 450.916 208.82C452.14 207.956 453.592 207.524 455.272 207.524C456.952 207.524 458.308 207.92 459.34 208.712C460.372 209.504 461.152 210.452 461.68 211.556H461.932V208.028H465.064V227H461.932V223.112H461.68C461.104 224.24 460.288 225.212 459.232 226.028C458.176 226.844 456.82 227.252 455.164 227.252ZM456.136 224.588C457.984 224.588 459.4 223.904 460.384 222.536C461.368 221.144 461.86 219.428 461.86 217.388C461.86 215.348 461.368 213.644 460.384 212.276C459.4 210.884 457.984 210.188 456.136 210.188C454.24 210.188 452.8 210.872 451.816 212.24C450.856 213.608 450.376 215.312 450.376 217.352C450.376 219.416 450.856 221.144 451.816 222.536C452.8 223.904 454.24 224.588 456.136 224.588Z" fill="#23BDFF"/>
<path d="M478.93 234.596C478.21 234.596 477.622 234.548 477.166 234.452C476.734 234.356 476.29 234.224 475.834 234.056V231.464C476.146 231.56 476.566 231.644 477.094 231.716C477.622 231.812 478.138 231.86 478.642 231.86C480.514 231.86 481.918 231.332 482.854 230.276C483.814 229.22 484.294 227.816 484.294 226.064V222.644H484.006C483.502 223.772 482.686 224.732 481.558 225.524C480.454 226.292 479.11 226.676 477.526 226.676C475.942 226.676 474.55 226.268 473.35 225.452C472.15 224.636 471.214 223.508 470.542 222.068C469.894 220.604 469.57 218.936 469.57 217.064C469.57 215.192 469.894 213.536 470.542 212.096C471.214 210.632 472.15 209.492 473.35 208.676C474.55 207.86 475.942 207.452 477.526 207.452C479.182 207.452 480.562 207.884 481.666 208.748C482.794 209.588 483.586 210.572 484.042 211.7H484.294V208.064H487.426V226.064C487.426 227.408 487.15 228.728 486.598 230.024C486.07 231.32 485.17 232.4 483.898 233.264C482.626 234.152 480.97 234.596 478.93 234.596ZM478.534 224.012C479.758 224.012 480.802 223.688 481.666 223.04C482.53 222.368 483.166 221.504 483.574 220.448C484.006 219.368 484.222 218.216 484.222 216.992C484.222 215.792 484.006 214.676 483.574 213.644C483.166 212.612 482.53 211.772 481.666 211.124C480.826 210.476 479.782 210.152 478.534 210.152C476.686 210.152 475.27 210.824 474.286 212.168C473.326 213.488 472.846 215.096 472.846 216.992C472.846 218.24 473.05 219.404 473.458 220.484C473.89 221.54 474.526 222.392 475.366 223.04C476.23 223.688 477.286 224.012 478.534 224.012Z" fill="#23BDFF"/>
<path d="M500.023 227.252C498.343 227.252 496.903 226.82 495.703 225.956C494.527 225.092 493.627 223.916 493.003 222.428C492.379 220.94 492.067 219.26 492.067 217.388C492.067 215.516 492.379 213.836 493.003 212.348C493.651 210.836 494.575 209.66 495.775 208.82C496.999 207.956 498.451 207.524 500.131 207.524C501.811 207.524 503.167 207.92 504.199 208.712C505.231 209.504 506.011 210.452 506.539 211.556H506.791V208.028H509.923V227H506.791V223.112H506.539C505.963 224.24 505.147 225.212 504.091 226.028C503.035 226.844 501.679 227.252 500.023 227.252ZM500.995 224.588C502.843 224.588 504.259 223.904 505.243 222.536C506.227 221.144 506.719 219.428 506.719 217.388C506.719 215.348 506.227 213.644 505.243 212.276C504.259 210.884 502.843 210.188 500.995 210.188C499.099 210.188 497.659 210.872 496.675 212.24C495.715 213.608 495.235 215.312 495.235 217.352C495.235 219.416 495.715 221.144 496.675 222.536C497.659 223.904 499.099 224.588 500.995 224.588Z" fill="#23BDFF"/>
<path d="M530.716 227.252C529.036 227.252 527.596 226.82 526.396 225.956C525.22 225.092 524.32 223.916 523.696 222.428C523.072 220.94 522.76 219.26 522.76 217.388C522.76 215.492 523.072 213.8 523.696 212.312C524.32 210.824 525.232 209.66 526.432 208.82C527.632 207.956 529.084 207.524 530.788 207.524C532.468 207.524 533.824 207.932 534.856 208.748C535.912 209.54 536.692 210.476 537.196 211.556H537.484V200H540.58V227H537.484V223.112H537.196C536.62 224.264 535.804 225.248 534.748 226.064C533.716 226.856 532.372 227.252 530.716 227.252ZM531.652 224.588C533.524 224.588 534.952 223.904 535.936 222.536C536.92 221.144 537.412 219.428 537.412 217.388C537.412 215.348 536.92 213.644 535.936 212.276C534.952 210.908 533.524 210.224 531.652 210.224C529.756 210.224 528.328 210.908 527.368 212.276C526.408 213.644 525.928 215.348 525.928 217.388C525.928 219.452 526.408 221.168 527.368 222.536C528.352 223.904 529.78 224.588 531.652 224.588Z" fill="#23BDFF"/>
<path d="M546.237 208.028H549.333V227H546.237V208.028ZM547.749 204.5C547.173 204.5 546.693 204.308 546.309 203.924C545.925 203.516 545.733 203.036 545.733 202.484C545.733 201.932 545.925 201.464 546.309 201.08C546.693 200.672 547.173 200.468 547.749 200.468C548.325 200.468 548.805 200.672 549.189 201.08C549.597 201.464 549.801 201.932 549.801 202.484C549.801 203.036 549.597 203.516 549.189 203.924C548.805 204.308 548.325 204.5 547.749 204.5Z" fill="#23BDFF"/>
<path d="M561.933 227.252C560.253 227.252 558.813 226.82 557.613 225.956C556.437 225.092 555.537 223.916 554.913 222.428C554.289 220.94 553.977 219.26 553.977 217.388C553.977 215.516 554.289 213.836 554.913 212.348C555.561 210.836 556.485 209.66 557.685 208.82C558.909 207.956 560.361 207.524 562.041 207.524C563.721 207.524 565.077 207.92 566.109 208.712C567.141 209.504 567.921 210.452 568.449 211.556H568.701V208.028H571.833V227H568.701V223.112H568.449C567.873 224.24 567.057 225.212 566.001 226.028C564.945 226.844 563.589 227.252 561.933 227.252ZM562.905 224.588C564.753 224.588 566.169 223.904 567.153 222.536C568.137 221.144 568.629 219.428 568.629 217.388C568.629 215.348 568.137 213.644 567.153 212.276C566.169 210.884 564.753 210.188 562.905 210.188C561.009 210.188 559.569 210.872 558.585 212.24C557.625 213.608 557.145 215.312 557.145 217.352C557.145 219.416 557.625 221.144 558.585 222.536C559.569 223.904 561.009 224.588 562.905 224.588Z" fill="#23BDFF"/>
<path d="M587.173 227.252C585.517 227.252 584.161 226.844 583.105 226.028C582.049 225.212 581.233 224.24 580.657 223.112H580.405V227H577.273V200H580.405V211.556H580.657C581.185 210.452 581.965 209.504 582.997 208.712C584.029 207.92 585.385 207.524 587.065 207.524C588.769 207.524 590.221 207.956 591.421 208.82C592.645 209.66 593.569 210.836 594.193 212.348C594.817 213.836 595.129 215.516 595.129 217.388C595.129 219.26 594.817 220.94 594.193 222.428C593.569 223.916 592.657 225.092 591.457 225.956C590.257 226.82 588.829 227.252 587.173 227.252ZM586.201 224.588C588.073 224.588 589.489 223.904 590.449 222.536C591.433 221.168 591.925 219.452 591.925 217.388C591.925 215.348 591.445 213.644 590.485 212.276C589.525 210.908 588.097 210.224 586.201 210.224C584.329 210.224 582.901 210.908 581.917 212.276C580.957 213.644 580.477 215.348 580.477 217.388C580.477 219.428 580.969 221.144 581.953 222.536C582.937 223.904 584.353 224.588 586.201 224.588Z" fill="#23BDFF"/>
<path d="M607.555 227.252C605.611 227.252 603.967 226.784 602.623 225.848C601.303 224.912 600.319 223.688 599.671 222.176C599.023 220.664 598.699 219.068 598.699 217.388C598.699 215.684 599.023 214.088 599.671 212.6C600.319 211.088 601.315 209.864 602.659 208.928C604.003 207.992 605.647 207.524 607.591 207.524C610.135 207.524 612.163 208.376 613.675 210.08C615.211 211.784 615.979 214.232 615.979 217.424V218.288H601.795V218.54C601.795 219.596 602.035 220.592 602.515 221.528C602.995 222.464 603.667 223.22 604.531 223.796C605.395 224.372 606.391 224.66 607.519 224.66C608.743 224.66 609.799 224.348 610.687 223.724C611.575 223.1 612.235 222.26 612.667 221.204H615.727C615.223 222.932 614.275 224.372 612.883 225.524C611.515 226.676 609.739 227.252 607.555 227.252ZM612.919 216.092C612.823 213.932 612.295 212.372 611.335 211.412C610.375 210.452 609.115 209.972 607.555 209.972C605.851 209.972 604.495 210.536 603.487 211.664C602.479 212.792 601.939 214.268 601.867 216.092H612.919Z" fill="#23BDFF"/>
<path d="M625.628 210.512V221.528C625.628 222.416 625.664 223.076 625.736 223.508C625.832 223.916 626.06 224.24 626.42 224.48C626.804 224.72 627.416 224.84 628.256 224.84C628.832 224.84 629.456 224.756 630.128 224.588V226.82C629.96 226.892 629.588 226.964 629.012 227.036C628.46 227.108 627.884 227.144 627.284 227.144C625.892 227.144 624.848 226.952 624.152 226.568C623.48 226.16 623.036 225.62 622.82 224.948C622.628 224.252 622.532 223.34 622.532 222.212V210.512H619.004V208.028H622.532V201.8H625.628V208.028H630.128V210.512H625.628Z" fill="#23BDFF"/>
<path d="M642.676 227.252C640.732 227.252 639.088 226.784 637.744 225.848C636.424 224.912 635.44 223.688 634.792 222.176C634.144 220.664 633.82 219.068 633.82 217.388C633.82 215.684 634.144 214.088 634.792 212.6C635.44 211.088 636.436 209.864 637.78 208.928C639.124 207.992 640.768 207.524 642.712 207.524C645.256 207.524 647.284 208.376 648.796 210.08C650.332 211.784 651.1 214.232 651.1 217.424V218.288H636.916V218.54C636.916 219.596 637.156 220.592 637.636 221.528C638.116 222.464 638.788 223.22 639.652 223.796C640.516 224.372 641.512 224.66 642.64 224.66C643.864 224.66 644.92 224.348 645.808 223.724C646.696 223.1 647.356 222.26 647.788 221.204H650.848C650.344 222.932 649.396 224.372 648.004 225.524C646.636 226.676 644.86 227.252 642.676 227.252ZM648.04 216.092C647.944 213.932 647.416 212.372 646.456 211.412C645.496 210.452 644.236 209.972 642.676 209.972C640.972 209.972 639.616 210.536 638.608 211.664C637.6 212.792 637.06 214.268 636.988 216.092H648.04Z" fill="#23BDFF"/>
<path d="M662.153 227.252C660.617 227.252 659.285 226.952 658.157 226.352C657.029 225.728 656.165 224.936 655.565 223.976C654.989 223.016 654.701 222.008 654.701 220.952V220.772H657.797V220.916C657.797 221.516 657.965 222.116 658.301 222.716C658.637 223.292 659.141 223.772 659.813 224.156C660.485 224.516 661.301 224.696 662.261 224.696C663.413 224.696 664.361 224.42 665.105 223.868C665.873 223.292 666.257 222.512 666.257 221.528C666.257 220.712 665.957 220.064 665.357 219.584C664.781 219.104 664.049 218.792 663.161 218.648L660.677 218.288C659.117 218.048 657.809 217.52 656.753 216.704C655.697 215.864 655.169 214.652 655.169 213.068C655.169 211.316 655.793 209.96 657.041 209C658.313 208.016 659.933 207.524 661.901 207.524C663.365 207.524 664.613 207.8 665.645 208.352C666.701 208.88 667.505 209.588 668.057 210.476C668.609 211.34 668.885 212.288 668.885 213.32V213.464H665.789V213.392C665.789 212.912 665.657 212.408 665.393 211.88C665.153 211.352 664.733 210.896 664.133 210.512C663.533 210.128 662.765 209.936 661.829 209.936C660.677 209.936 659.753 210.224 659.057 210.8C658.361 211.352 658.013 212.084 658.013 212.996C658.013 213.74 658.289 214.352 658.841 214.832C659.393 215.312 660.089 215.624 660.929 215.768L663.629 216.2C665.213 216.464 666.545 217.016 667.625 217.856C668.705 218.672 669.245 219.884 669.245 221.492C669.245 222.644 668.933 223.652 668.309 224.516C667.709 225.38 666.869 226.052 665.789 226.532C664.709 227.012 663.497 227.252 662.153 227.252Z" fill="#23BDFF"/>
<path d="M673.532 208.028H676.592V211.52H676.88C676.928 211.28 677.168 210.848 677.6 210.224C678.032 209.576 678.692 208.964 679.58 208.388C680.468 207.812 681.572 207.524 682.892 207.524C684.284 207.524 685.436 207.848 686.348 208.496C687.284 209.144 687.98 209.84 688.436 210.584C688.892 211.328 689.12 211.796 689.12 211.988H689.408C689.744 211.148 690.404 210.2 691.388 209.144C692.396 208.064 693.932 207.524 695.996 207.524C697.532 207.524 698.816 207.92 699.848 208.712C700.88 209.48 701.636 210.476 702.116 211.7C702.62 212.924 702.872 214.232 702.872 215.624V227H699.812V215.912C699.812 214.088 699.332 212.708 698.372 211.772C697.436 210.836 696.272 210.368 694.88 210.368C693.44 210.368 692.216 210.86 691.208 211.844C690.224 212.804 689.732 214.16 689.732 215.912V227H686.672V215.912C686.672 214.088 686.192 212.708 685.232 211.772C684.296 210.836 683.132 210.368 681.74 210.368C680.3 210.368 679.076 210.86 678.068 211.844C677.084 212.804 676.592 214.16 676.592 215.912V227H673.532V208.028Z" fill="#23BDFF"/>
<path d="M724.544 227H721.412V223.4H721.196C720.692 224.504 719.912 225.44 718.856 226.208C717.824 226.952 716.552 227.324 715.04 227.324C713.456 227.324 712.136 226.94 711.08 226.172C710.024 225.404 709.244 224.408 708.74 223.184C708.26 221.96 708.02 220.628 708.02 219.188V208.028H711.116V218.792C711.116 220.64 711.584 222.068 712.52 223.076C713.456 224.06 714.68 224.552 716.192 224.552C717.776 224.552 719.036 224.024 719.972 222.968C720.932 221.888 721.412 220.496 721.412 218.792V208.028H724.544V227Z" fill="#23BDFF"/>
<path d="M41.0854 123.686C62.7264 143.552 95.7062 144.153 118.033 125.489C116.644 123.633 115.106 121.853 113.418 120.165C111.587 118.334 109.647 116.679 107.619 115.199C90.0536 129.453 65.2412 130.331 46.7831 117.832C45.9297 118.575 45.096 119.353 44.2839 120.165C43.1504 121.299 42.0843 122.474 41.0854 123.686Z" fill="url(#paint0_linear_308_116)"/>
<path d="M108.441 114.518C105.045 110.128 102.36 105.366 100.385 100.387C80.1 92.3416 56.2217 96.0941 39.2888 111.644C41.6302 113.981 44.1415 116.043 46.7831 117.832C64.0635 102.784 89.3993 101.906 107.619 115.199C107.895 114.976 108.169 114.748 108.441 114.518Z" fill="url(#paint1_linear_308_116)"/>
<path d="M125.533 117.98C144.152 95.6523 143.534 62.7054 123.679 41.0823C122.487 42.0678 121.33 43.1187 120.214 44.2347C119.384 45.0645 118.591 45.9167 117.833 46.7893C130.315 65.2269 129.452 90.0028 115.244 107.564C116.725 109.594 118.381 111.536 120.214 113.369C121.9 115.055 123.679 116.592 125.533 117.98Z" fill="url(#paint2_linear_308_116)"/>
<path d="M100.385 100.387C105.364 102.362 110.126 105.047 114.516 108.443C114.763 108.152 115.005 107.859 115.244 107.564C101.97 89.3638 102.833 64.0665 117.833 46.7893C116.044 44.1462 113.98 41.6334 111.642 39.2908C96.0922 56.2236 92.3397 80.1019 100.385 100.387Z" fill="url(#paint3_linear_308_116)"/>
<path d="M100.385 100.387C102.36 105.366 105.045 110.128 108.441 114.518C109.526 113.6 110.581 112.629 111.604 111.606C112.627 110.583 113.598 109.528 114.516 108.443C110.126 105.047 105.364 102.362 100.385 100.387Z" fill="url(#paint4_linear_308_116)"/>
<path d="M242.911 123.686C221.27 143.552 188.29 144.153 165.963 125.489C167.352 123.633 168.89 121.853 170.578 120.165C172.409 118.334 174.349 116.679 176.377 115.199C193.943 129.453 218.755 130.331 237.213 117.832C238.066 118.575 238.9 119.353 239.712 120.165C240.846 121.299 241.912 122.474 242.911 123.686Z" fill="url(#paint5_linear_308_116)"/>
<path d="M175.555 114.518C178.951 110.128 181.637 105.366 183.611 100.387C203.896 92.3416 227.774 96.0941 244.707 111.644C242.366 113.981 239.855 116.043 237.213 117.832C219.933 102.784 194.597 101.906 176.377 115.199C176.101 114.975 175.827 114.748 175.555 114.518Z" fill="url(#paint6_linear_308_116)"/>
<path d="M158.463 117.98C139.844 95.6522 140.462 62.7054 160.317 41.0823C161.509 42.0678 162.666 43.1187 163.782 44.2347C164.612 45.0645 165.405 45.9167 166.163 46.7893C153.681 65.2269 154.544 90.0028 168.752 107.564C167.271 109.594 165.615 111.536 163.782 113.369C162.096 115.055 160.318 116.592 158.463 117.98Z" fill="url(#paint7_linear_308_116)"/>
<path d="M183.611 100.387C178.632 102.362 173.87 105.047 169.48 108.443C169.234 108.152 168.991 107.859 168.752 107.564C182.026 89.3638 181.163 64.0665 166.163 46.7893C167.952 44.1462 170.016 41.6334 172.354 39.2908C187.904 56.2236 191.656 80.1019 183.611 100.387Z" fill="url(#paint8_linear_308_116)"/>
<path d="M183.611 100.387C181.637 105.366 178.951 110.128 175.555 114.518C174.47 113.6 173.415 112.629 172.392 111.606C171.369 110.583 170.398 109.528 169.48 108.443C173.87 105.047 178.632 102.362 183.611 100.387Z" fill="url(#paint9_linear_308_116)"/>
<path d="M41.0854 160.314C62.7264 140.448 95.7062 139.847 118.033 158.511C116.644 160.367 115.106 162.147 113.418 163.835C111.587 165.666 109.648 167.321 107.619 168.801C90.0536 154.547 65.2412 153.669 46.783 166.168C45.9297 165.425 45.0961 164.647 44.2839 163.835C43.1504 162.701 42.0842 161.526 41.0854 160.314Z" fill="url(#paint10_linear_308_116)"/>
<path d="M108.441 169.482C105.045 173.872 102.36 178.634 100.385 183.613C80.1 191.658 56.2217 187.906 39.2888 172.356C41.6302 170.019 44.1415 167.957 46.783 166.168C64.0635 181.216 89.3993 182.094 107.619 168.801C107.895 169.024 108.169 169.252 108.441 169.482Z" fill="url(#paint11_linear_308_116)"/>
<path d="M125.533 166.02C144.152 188.348 143.534 221.295 123.679 242.918C122.487 241.932 121.33 240.881 120.214 239.765C119.384 238.935 118.591 238.083 117.833 237.211C130.315 218.773 129.452 193.997 115.244 176.436C116.725 174.406 118.381 172.464 120.214 170.631C121.9 168.945 123.679 167.408 125.533 166.02Z" fill="url(#paint12_linear_308_116)"/>
<path d="M100.385 183.613C105.364 181.638 110.126 178.953 114.516 175.557C114.763 175.848 115.005 176.141 115.244 176.436C101.97 194.636 102.833 219.934 117.833 237.211C116.044 239.854 113.98 242.367 111.642 244.709C96.0922 227.776 92.3397 203.898 100.385 183.613Z" fill="url(#paint13_linear_308_116)"/>
<path d="M100.385 183.613C102.36 178.634 105.045 173.872 108.441 169.482C109.526 170.4 110.581 171.371 111.604 172.394C112.627 173.417 113.598 174.472 114.516 175.557C110.126 178.953 105.364 181.638 100.385 183.613Z" fill="url(#paint14_linear_308_116)"/>
<path d="M242.911 160.314C221.27 140.448 188.29 139.847 165.963 158.511C167.352 160.367 168.89 162.147 170.578 163.835C172.409 165.666 174.349 167.321 176.377 168.801C193.943 154.547 218.755 153.669 237.213 166.168C238.066 165.425 238.9 164.647 239.712 163.835C240.846 162.701 241.912 161.526 242.911 160.314Z" fill="url(#paint15_linear_308_116)"/>
<path d="M175.555 169.482C178.951 173.872 181.637 178.634 183.611 183.613C203.896 191.658 227.774 187.906 244.707 172.356C242.366 170.019 239.855 167.957 237.213 166.168C219.933 181.216 194.597 182.094 176.377 168.801C176.101 169.024 175.827 169.252 175.555 169.482Z" fill="url(#paint16_linear_308_116)"/>
<path d="M158.463 166.02C139.844 188.348 140.462 221.295 160.317 242.918C161.509 241.932 162.666 240.881 163.782 239.765C164.612 238.935 165.405 238.083 166.163 237.211C153.681 218.773 154.544 193.997 168.752 176.436C167.271 174.406 165.615 172.464 163.782 170.631C162.096 168.945 160.318 167.408 158.463 166.02Z" fill="url(#paint17_linear_308_116)"/>
<path d="M183.611 183.613C178.632 181.638 173.87 178.953 169.48 175.557C169.234 175.848 168.991 176.141 168.752 176.436C182.026 194.636 181.163 219.934 166.163 237.211C167.952 239.854 170.016 242.367 172.354 244.709C187.904 227.776 191.656 203.898 183.611 183.613Z" fill="url(#paint18_linear_308_116)"/>
<path d="M183.611 183.613C181.637 178.634 178.951 173.872 175.555 169.482C174.47 170.4 173.415 171.371 172.392 172.394C171.369 173.417 170.398 174.472 169.48 175.557C173.87 178.953 178.632 181.638 183.611 183.613Z" fill="url(#paint19_linear_308_116)"/>
<path d="M213.148 81.038C213.272 77.7846 213.125 74.5229 212.709 71.2893C209.495 70.8752 206.253 70.728 203.019 70.8478C203.538 74.0089 203.745 77.2112 203.641 80.4052C206.818 80.308 210.004 80.5189 213.148 81.038Z" fill="url(#paint20_linear_308_116)"/>
<path d="M203.019 213.152C206.253 213.272 209.495 213.125 212.709 212.711C213.125 209.477 213.272 206.215 213.148 202.962C210.004 203.481 206.818 203.692 203.641 203.595C203.745 206.789 203.538 209.991 203.019 213.152Z" fill="url(#paint21_linear_308_116)"/>
<path d="M71.2874 212.711C74.5013 213.125 77.7431 213.272 80.9769 213.152C80.4583 209.991 80.2511 206.789 80.3553 203.595C77.1777 203.692 73.9924 203.481 70.848 202.962C70.7243 206.215 70.8707 209.477 71.2874 212.711Z" fill="url(#paint22_linear_308_116)"/>
<path d="M71.2874 71.2893C70.8707 74.5229 70.7243 77.7846 70.848 81.038C73.9924 80.5189 77.1777 80.308 80.3553 80.4052C80.2512 77.2112 80.4583 74.0089 80.9769 70.8478C77.7431 70.728 74.5013 70.8752 71.2874 71.2893Z" fill="url(#paint23_linear_308_116)"/>
<defs>
<linearGradient id="paint0_linear_308_116" x1="212.709" y1="212.711" x2="71.2874" y2="71.2893" gradientUnits="userSpaceOnUse">
<stop stop-color="#00FFFF"/>
<stop offset="1" stop-color="#23BDFF"/>
</linearGradient>
<linearGradient id="paint1_linear_308_116" x1="212.709" y1="212.711" x2="71.2874" y2="71.2893" gradientUnits="userSpaceOnUse">
<stop stop-color="#00FFFF"/>
<stop offset="1" stop-color="#23BDFF"/>
</linearGradient>
<linearGradient id="paint2_linear_308_116" x1="212.709" y1="212.711" x2="71.2874" y2="71.2893" gradientUnits="userSpaceOnUse">
<stop stop-color="#00FFFF"/>
<stop offset="1" stop-color="#23BDFF"/>
</linearGradient>
<linearGradient id="paint3_linear_308_116" x1="212.709" y1="212.711" x2="71.2874" y2="71.2893" gradientUnits="userSpaceOnUse">
<stop stop-color="#00FFFF"/>
<stop offset="1" stop-color="#23BDFF"/>
</linearGradient>
<linearGradient id="paint4_linear_308_116" x1="212.709" y1="212.711" x2="71.2874" y2="71.2893" gradientUnits="userSpaceOnUse">
<stop stop-color="#00FFFF"/>
<stop offset="1" stop-color="#23BDFF"/>
</linearGradient>
<linearGradient id="paint5_linear_308_116" x1="212.709" y1="212.711" x2="71.2874" y2="71.2893" gradientUnits="userSpaceOnUse">
<stop stop-color="#00FFFF"/>
<stop offset="1" stop-color="#23BDFF"/>
</linearGradient>
<linearGradient id="paint6_linear_308_116" x1="212.709" y1="212.711" x2="71.2874" y2="71.2893" gradientUnits="userSpaceOnUse">
<stop stop-color="#00FFFF"/>
<stop offset="1" stop-color="#23BDFF"/>
</linearGradient>
<linearGradient id="paint7_linear_308_116" x1="212.709" y1="212.711" x2="71.2874" y2="71.2893" gradientUnits="userSpaceOnUse">
<stop stop-color="#00FFFF"/>
<stop offset="1" stop-color="#23BDFF"/>
</linearGradient>
<linearGradient id="paint8_linear_308_116" x1="212.709" y1="212.711" x2="71.2874" y2="71.2893" gradientUnits="userSpaceOnUse">
<stop stop-color="#00FFFF"/>
<stop offset="1" stop-color="#23BDFF"/>
</linearGradient>
<linearGradient id="paint9_linear_308_116" x1="212.709" y1="212.711" x2="71.2874" y2="71.2893" gradientUnits="userSpaceOnUse">
<stop stop-color="#00FFFF"/>
<stop offset="1" stop-color="#23BDFF"/>
</linearGradient>
<linearGradient id="paint10_linear_308_116" x1="212.709" y1="212.711" x2="71.2874" y2="71.2893" gradientUnits="userSpaceOnUse">
<stop stop-color="#00FFFF"/>
<stop offset="1" stop-color="#23BDFF"/>
</linearGradient>
<linearGradient id="paint11_linear_308_116" x1="212.709" y1="212.711" x2="71.2874" y2="71.2893" gradientUnits="userSpaceOnUse">
<stop stop-color="#00FFFF"/>
<stop offset="1" stop-color="#23BDFF"/>
</linearGradient>
<linearGradient id="paint12_linear_308_116" x1="212.709" y1="212.711" x2="71.2874" y2="71.2893" gradientUnits="userSpaceOnUse">
<stop stop-color="#00FFFF"/>
<stop offset="1" stop-color="#23BDFF"/>
</linearGradient>
<linearGradient id="paint13_linear_308_116" x1="212.709" y1="212.711" x2="71.2874" y2="71.2893" gradientUnits="userSpaceOnUse">
<stop stop-color="#00FFFF"/>
<stop offset="1" stop-color="#23BDFF"/>
</linearGradient>
<linearGradient id="paint14_linear_308_116" x1="212.709" y1="212.711" x2="71.2874" y2="71.2893" gradientUnits="userSpaceOnUse">
<stop stop-color="#00FFFF"/>
<stop offset="1" stop-color="#23BDFF"/>
</linearGradient>
<linearGradient id="paint15_linear_308_116" x1="212.709" y1="212.711" x2="71.2874" y2="71.2893" gradientUnits="userSpaceOnUse">
<stop stop-color="#00FFFF"/>
<stop offset="1" stop-color="#23BDFF"/>
</linearGradient>
<linearGradient id="paint16_linear_308_116" x1="212.709" y1="212.711" x2="71.2874" y2="71.2893" gradientUnits="userSpaceOnUse">
<stop stop-color="#00FFFF"/>
<stop offset="1" stop-color="#23BDFF"/>
</linearGradient>
<linearGradient id="paint17_linear_308_116" x1="212.709" y1="212.711" x2="71.2874" y2="71.2893" gradientUnits="userSpaceOnUse">
<stop stop-color="#00FFFF"/>
<stop offset="1" stop-color="#23BDFF"/>
</linearGradient>
<linearGradient id="paint18_linear_308_116" x1="212.709" y1="212.711" x2="71.2874" y2="71.2893" gradientUnits="userSpaceOnUse">
<stop stop-color="#00FFFF"/>
<stop offset="1" stop-color="#23BDFF"/>
</linearGradient>
<linearGradient id="paint19_linear_308_116" x1="212.709" y1="212.711" x2="71.2874" y2="71.2893" gradientUnits="userSpaceOnUse">
<stop stop-color="#00FFFF"/>
<stop offset="1" stop-color="#23BDFF"/>
</linearGradient>
<linearGradient id="paint20_linear_308_116" x1="212.709" y1="212.711" x2="71.2874" y2="71.2893" gradientUnits="userSpaceOnUse">
<stop stop-color="#00FFFF"/>
<stop offset="1" stop-color="#23BDFF"/>
</linearGradient>
<linearGradient id="paint21_linear_308_116" x1="212.709" y1="212.711" x2="71.2874" y2="71.2893" gradientUnits="userSpaceOnUse">
<stop stop-color="#00FFFF"/>
<stop offset="1" stop-color="#23BDFF"/>
</linearGradient>
<linearGradient id="paint22_linear_308_116" x1="212.709" y1="212.711" x2="71.2874" y2="71.2893" gradientUnits="userSpaceOnUse">
<stop stop-color="#00FFFF"/>
<stop offset="1" stop-color="#23BDFF"/>
</linearGradient>
<linearGradient id="paint23_linear_308_116" x1="212.709" y1="212.711" x2="71.2874" y2="71.2893" gradientUnits="userSpaceOnUse">
<stop stop-color="#00FFFF"/>
<stop offset="1" stop-color="#23BDFF"/>
</linearGradient>
</defs>
</svg>
