<svg width="685" height="200" viewBox="0 0 685 200" fill="none" xmlns="http://www.w3.org/2000/svg">
<path d="M245.78 102.92C245.78 111.283 247.444 117.47 250.772 121.48C254.185 125.406 258.452 127.368 263.572 127.368C266.388 127.368 268.862 126.814 270.996 125.704C273.214 124.51 275.518 122.59 277.908 119.944V84.4882C275.006 81.9282 272.404 80.1789 270.1 79.2402C267.796 78.3015 265.577 77.8322 263.444 77.8322C260.286 77.8322 257.342 78.7282 254.612 80.5202C251.966 82.2269 249.833 84.9575 248.212 88.7122C246.59 92.3815 245.78 97.1175 245.78 102.92ZM279.188 134.28L278.292 125.448C276.073 128.35 273.513 130.611 270.612 132.232C267.796 133.854 264.382 134.664 260.372 134.664C255.166 134.664 250.601 133.342 246.676 130.696C242.75 128.051 239.678 124.382 237.46 119.688C235.326 114.91 234.26 109.406 234.26 103.176C234.26 96.6055 235.454 90.8882 237.844 86.0242C240.233 81.1602 243.476 77.3629 247.572 74.6322C251.668 71.9015 256.318 70.5362 261.524 70.5362C264.51 70.5362 267.369 71.1335 270.1 72.3282C272.916 73.5229 275.646 75.6989 278.292 78.8562V49.9282L267.412 48.6482V44.1682L287.38 38.4082L289.172 39.4322L288.66 57.6082V126.856L299.028 128.392V133L279.188 134.28Z" fill="#23BDFF"/>
<path d="M305.605 133V128.392L315.205 126.6C315.29 123.358 315.333 119.859 315.333 116.104C315.418 112.264 315.461 108.936 315.461 106.12V100.104C315.461 96.6055 315.418 93.7042 315.333 91.4002C315.333 89.0109 315.247 86.5362 315.077 83.9762L304.837 82.8242V78.3442L324.549 70.5362L326.469 71.8162L326.085 89.2242V106.12C326.085 108.936 326.085 112.264 326.085 116.104C326.17 119.859 326.255 123.358 326.341 126.6L335.301 128.392V133H305.605ZM320.709 56.4562C318.319 56.4562 316.271 55.6882 314.565 54.1522C312.943 52.6162 312.133 50.6535 312.133 48.2642C312.133 45.7895 312.943 43.8269 314.565 42.3762C316.271 40.8402 318.319 40.0722 320.709 40.0722C323.098 40.0722 325.103 40.8402 326.725 42.3762C328.431 43.8269 329.285 45.7895 329.285 48.2642C329.285 50.6535 328.431 52.6162 326.725 54.1522C325.103 55.6882 323.098 56.4562 320.709 56.4562Z" fill="#23BDFF"/>
<path d="M392.498 134.28C389.426 134.28 386.866 133.384 384.818 131.592C382.77 129.8 381.49 127.411 380.978 124.424C377.479 127.838 374.407 130.398 371.762 132.104C369.116 133.811 365.916 134.664 362.162 134.664C357.468 134.664 353.415 133.342 350.002 130.696C346.674 127.966 345.01 123.955 345.01 118.664C345.01 116.19 345.564 113.886 346.674 111.752C347.868 109.619 350.002 107.528 353.074 105.48C356.146 103.432 360.54 101.384 366.258 99.3362C368.22 98.6535 370.482 97.9282 373.042 97.1602C375.602 96.3922 378.162 95.7095 380.722 95.1122V91.9122C380.722 85.6829 379.783 81.5442 377.906 79.4962C376.028 77.4482 372.956 76.4242 368.69 76.4242C367.751 76.4242 366.684 76.4669 365.49 76.5522C364.38 76.6375 363.143 76.8509 361.778 77.1922L359.346 85.5122C358.151 89.6082 355.932 91.6562 352.69 91.6562C349.106 91.6562 347.1 89.9069 346.674 86.4082C347.868 81.5442 350.684 77.7042 355.122 74.8882C359.644 71.9869 365.148 70.5362 371.634 70.5362C378.375 70.5362 383.367 72.2429 386.61 75.6562C389.852 78.9842 391.474 84.7015 391.474 92.8082V120.072C391.474 122.803 391.9 124.766 392.754 125.96C393.607 127.07 394.716 127.624 396.082 127.624C397.191 127.624 398.13 127.368 398.898 126.856C399.666 126.344 400.391 125.662 401.074 124.808L403.634 127.624C402.098 130.099 400.391 131.848 398.514 132.872C396.722 133.811 394.716 134.28 392.498 134.28ZM356.402 116.744C356.402 120.158 357.383 122.59 359.346 124.04C361.308 125.491 363.74 126.216 366.642 126.216C367.922 126.216 369.116 126.046 370.226 125.704C371.42 125.363 372.828 124.723 374.45 123.784C376.071 122.76 378.162 121.31 380.722 119.432V99.8482C378.503 100.446 376.327 101.128 374.194 101.896C372.06 102.579 370.311 103.176 368.946 103.688C365.276 105.139 362.546 106.632 360.754 108.168C358.962 109.704 357.767 111.198 357.17 112.648C356.658 114.099 356.402 115.464 356.402 116.744Z" fill="#23BDFF"/>
<path d="M408.87 133V128.392L418.342 126.6C418.427 123.358 418.47 119.859 418.47 116.104C418.555 112.35 418.598 109.022 418.598 106.12V99.9762C418.598 96.4775 418.555 93.5762 418.47 91.2722C418.47 88.9682 418.384 86.5362 418.214 83.9762L408.102 82.8242V78.3442L426.022 70.5362L427.942 71.8162L428.966 82.1842C431.952 78.7709 435.451 75.9975 439.462 73.8642C443.472 71.6455 447.44 70.5362 451.366 70.5362C455.376 70.5362 458.619 71.4749 461.094 73.3522C463.654 75.2295 465.488 78.3015 466.598 82.5682C469.84 78.5575 473.467 75.5709 477.478 73.6082C481.488 71.5602 485.584 70.5362 489.766 70.5362C494.971 70.5362 498.982 72.2855 501.798 75.7842C504.699 79.2829 506.15 85.0002 506.15 92.9362V106.12C506.15 109.022 506.15 112.35 506.15 116.104C506.235 119.859 506.32 123.358 506.406 126.6L515.366 128.392V133H485.67V128.392L495.142 126.6C495.227 123.443 495.27 119.987 495.27 116.232C495.355 112.392 495.398 109.022 495.398 106.12V94.9842C495.398 89.0109 494.544 85.0002 492.838 82.9522C491.131 80.8189 488.4 79.7522 484.646 79.7522C482 79.7522 479.27 80.3495 476.454 81.5442C473.723 82.7389 470.736 84.8295 467.494 87.8162C467.579 88.7549 467.622 89.7789 467.622 90.8882C467.707 91.9122 467.75 93.0215 467.75 94.2162V106.12C467.75 109.022 467.75 112.35 467.75 116.104C467.835 119.859 467.92 123.358 468.006 126.6L476.966 128.392V133H447.27V128.392L456.742 126.6C456.827 123.443 456.87 119.987 456.87 116.232C456.955 112.392 456.998 109.022 456.998 106.12V95.2402C456.998 89.4375 456.187 85.4269 454.566 83.2082C452.944 80.9042 450.256 79.7522 446.502 79.7522C443.6 79.7522 440.827 80.3495 438.182 81.5442C435.536 82.7389 432.635 84.7015 429.478 87.4322V106.12C429.478 108.936 429.478 112.264 429.478 116.104C429.563 119.859 429.648 123.358 429.734 126.6L438.566 128.392V133H408.87Z" fill="#23BDFF"/>
<path d="M572.373 134.28C569.301 134.28 566.741 133.384 564.693 131.592C562.645 129.8 561.365 127.411 560.853 124.424C557.354 127.838 554.282 130.398 551.637 132.104C548.991 133.811 545.791 134.664 542.037 134.664C537.343 134.664 533.29 133.342 529.877 130.696C526.549 127.966 524.885 123.955 524.885 118.664C524.885 116.19 525.439 113.886 526.549 111.752C527.743 109.619 529.877 107.528 532.949 105.48C536.021 103.432 540.415 101.384 546.133 99.3362C548.095 98.6535 550.357 97.9282 552.917 97.1602C555.477 96.3922 558.037 95.7095 560.597 95.1122V91.9122C560.597 85.6829 559.658 81.5442 557.781 79.4962C555.903 77.4482 552.831 76.4242 548.565 76.4242C547.626 76.4242 546.559 76.4669 545.365 76.5522C544.255 76.6375 543.018 76.8509 541.653 77.1922L539.221 85.5122C538.026 89.6082 535.807 91.6562 532.565 91.6562C528.981 91.6562 526.975 89.9069 526.549 86.4082C527.743 81.5442 530.559 77.7042 534.997 74.8882C539.519 71.9869 545.023 70.5362 551.509 70.5362C558.25 70.5362 563.242 72.2429 566.485 75.6562C569.727 78.9842 571.349 84.7015 571.349 92.8082V120.072C571.349 122.803 571.775 124.766 572.629 125.96C573.482 127.07 574.591 127.624 575.957 127.624C577.066 127.624 578.005 127.368 578.773 126.856C579.541 126.344 580.266 125.662 580.949 124.808L583.509 127.624C581.973 130.099 580.266 131.848 578.389 132.872C576.597 133.811 574.591 134.28 572.373 134.28ZM536.277 116.744C536.277 120.158 537.258 122.59 539.221 124.04C541.183 125.491 543.615 126.216 546.517 126.216C547.797 126.216 548.991 126.046 550.101 125.704C551.295 125.363 552.703 124.723 554.325 123.784C555.946 122.76 558.037 121.31 560.597 119.432V99.8482C558.378 100.446 556.202 101.128 554.069 101.896C551.935 102.579 550.186 103.176 548.821 103.688C545.151 105.139 542.421 106.632 540.629 108.168C538.837 109.704 537.642 111.198 537.045 112.648C536.533 114.099 536.277 115.464 536.277 116.744Z" fill="#23BDFF"/>
<path d="M610.49 134.664C606.052 134.664 602.511 133.47 599.866 131.08C597.22 128.691 595.898 125.022 595.898 120.072C595.898 118.451 595.898 116.872 595.898 115.336C595.983 113.715 596.026 111.667 596.026 109.192V78.9842H585.402V73.3522L596.794 71.9442L600.122 54.7922H607.802L607.034 72.2002H624.314V78.9842H606.906V118.664C606.906 121.907 607.546 124.296 608.826 125.832C610.106 127.283 611.812 128.008 613.946 128.008C615.396 128.008 616.762 127.71 618.042 127.112C619.407 126.515 620.9 125.662 622.522 124.552L625.594 127.88C622.095 132.403 617.06 134.664 610.49 134.664Z" fill="#23BDFF"/>
<path d="M660.307 76.4242C657.917 76.4242 655.485 77.1069 653.011 78.4722C650.621 79.8375 648.531 82.0135 646.739 85.0002C645.032 87.9869 643.923 91.9549 643.411 96.9042H666.707C669.779 96.9042 671.784 96.2642 672.723 94.9842C673.747 93.7042 674.259 92.1255 674.259 90.2482C674.259 87.7735 673.619 85.5122 672.339 83.4642C671.144 81.3309 669.48 79.6242 667.347 78.3442C665.299 77.0642 662.952 76.4242 660.307 76.4242ZM660.179 134.664C651.56 134.664 644.648 131.891 639.443 126.344C634.237 120.712 631.635 112.99 631.635 103.176C631.635 96.6055 632.957 90.8882 635.603 86.0242C638.333 81.1602 641.917 77.3629 646.355 74.6322C650.877 71.9015 655.784 70.5362 661.075 70.5362C665.512 70.5362 669.523 71.5175 673.107 73.4802C676.691 75.4429 679.549 78.2589 681.683 81.9282C683.816 85.5122 684.883 89.9069 684.883 95.1122C684.883 96.5629 684.797 97.9282 684.627 99.2082C684.456 100.403 684.243 101.427 683.987 102.28H643.155C643.325 110.131 645.288 116.104 649.043 120.2C652.797 124.296 657.747 126.344 663.891 126.344C667.987 126.344 671.4 125.534 674.131 123.912C676.861 122.206 679.379 120.03 681.683 117.384L684.755 119.816C682.365 124.339 679.123 127.966 675.027 130.696C670.931 133.342 665.981 134.664 660.179 134.664Z" fill="#23BDFF"/>
<path d="M341.564 185.252C339.908 185.252 338.552 184.844 337.496 184.028C336.44 183.212 335.624 182.24 335.048 181.112H334.796V192.308H331.664V166.028H334.796V169.556H335.048C335.576 168.452 336.356 167.504 337.388 166.712C338.42 165.92 339.776 165.524 341.456 165.524C343.16 165.524 344.612 165.956 345.812 166.82C347.036 167.66 347.96 168.836 348.584 170.348C349.208 171.836 349.52 173.516 349.52 175.388C349.52 177.26 349.208 178.94 348.584 180.428C347.96 181.916 347.048 183.092 345.848 183.956C344.648 184.82 343.22 185.252 341.564 185.252ZM340.592 182.588C342.464 182.588 343.88 181.904 344.84 180.536C345.824 179.168 346.316 177.452 346.316 175.388C346.316 173.348 345.836 171.644 344.876 170.276C343.916 168.908 342.488 168.224 340.592 168.224C338.72 168.224 337.292 168.908 336.308 170.276C335.348 171.644 334.868 173.348 334.868 175.388C334.868 177.428 335.36 179.144 336.344 180.536C337.328 181.904 338.744 182.588 340.592 182.588Z" fill="#23BDFF"/>
<path d="M362.087 185.252C360.143 185.252 358.499 184.784 357.155 183.848C355.835 182.912 354.851 181.688 354.203 180.176C353.555 178.664 353.231 177.068 353.231 175.388C353.231 173.684 353.555 172.088 354.203 170.6C354.851 169.088 355.847 167.864 357.191 166.928C358.535 165.992 360.179 165.524 362.123 165.524C364.667 165.524 366.695 166.376 368.207 168.08C369.743 169.784 370.511 172.232 370.511 175.424V176.288H356.327V176.54C356.327 177.596 356.567 178.592 357.047 179.528C357.527 180.464 358.199 181.22 359.063 181.796C359.927 182.372 360.923 182.66 362.051 182.66C363.275 182.66 364.331 182.348 365.219 181.724C366.107 181.1 366.767 180.26 367.199 179.204H370.259C369.755 180.932 368.807 182.372 367.415 183.524C366.047 184.676 364.271 185.252 362.087 185.252ZM367.451 174.092C367.355 171.932 366.827 170.372 365.867 169.412C364.907 168.452 363.647 167.972 362.087 167.972C360.383 167.972 359.027 168.536 358.019 169.664C357.011 170.792 356.471 172.268 356.399 174.092H367.451Z" fill="#23BDFF"/>
<path d="M375.083 166.028H378.179V169.448H378.467C378.947 168.344 379.727 167.42 380.807 166.676C381.887 165.908 383.207 165.524 384.767 165.524C386.375 165.524 387.719 165.908 388.799 166.676C389.879 167.42 390.671 168.416 391.175 169.664C391.703 170.888 391.967 172.22 391.967 173.66V185H388.871V174.056C388.871 172.184 388.379 170.756 387.395 169.772C386.435 168.788 385.175 168.296 383.615 168.296C381.959 168.296 380.639 168.836 379.655 169.916C378.671 170.972 378.179 172.352 378.179 174.056V185H375.083V166.028Z" fill="#23BDFF"/>
<path d="M399.142 162.5C398.566 162.5 398.086 162.308 397.702 161.924C397.342 161.54 397.162 161.06 397.162 160.484C397.162 159.908 397.342 159.428 397.702 159.044C398.086 158.66 398.566 158.468 399.142 158.468C399.718 158.468 400.198 158.672 400.582 159.08C400.99 159.464 401.194 159.932 401.194 160.484C401.194 161.036 400.99 161.516 400.582 161.924C400.198 162.308 399.718 162.5 399.142 162.5ZM395.542 192.884C394.582 192.884 393.742 192.788 393.022 192.596V190.364C393.43 190.46 393.994 190.508 394.714 190.508C395.578 190.508 396.214 190.34 396.622 190.004C397.03 189.692 397.282 189.308 397.378 188.852C397.474 188.42 397.522 187.856 397.522 187.16V165.776H400.618L400.654 187.88C400.654 189.224 400.318 190.388 399.646 191.372C398.974 192.38 397.606 192.884 395.542 192.884Z" fill="#23BDFF"/>
<path d="M413.179 185.252C411.499 185.252 410.059 184.82 408.859 183.956C407.683 183.092 406.783 181.916 406.159 180.428C405.535 178.94 405.223 177.26 405.223 175.388C405.223 173.516 405.535 171.836 406.159 170.348C406.807 168.836 407.731 167.66 408.931 166.82C410.155 165.956 411.607 165.524 413.287 165.524C414.967 165.524 416.323 165.92 417.355 166.712C418.387 167.504 419.167 168.452 419.695 169.556H419.947V166.028H423.079V185H419.947V181.112H419.695C419.119 182.24 418.303 183.212 417.247 184.028C416.191 184.844 414.835 185.252 413.179 185.252ZM414.151 182.588C415.999 182.588 417.415 181.904 418.399 180.536C419.383 179.144 419.875 177.428 419.875 175.388C419.875 173.348 419.383 171.644 418.399 170.276C417.415 168.884 415.999 168.188 414.151 168.188C412.255 168.188 410.815 168.872 409.831 170.24C408.871 171.608 408.391 173.312 408.391 175.352C408.391 177.416 408.871 179.144 409.831 180.536C410.815 181.904 412.255 182.588 414.151 182.588Z" fill="#23BDFF"/>
<path d="M436.946 192.596C436.226 192.596 435.638 192.548 435.182 192.452C434.75 192.356 434.306 192.224 433.85 192.056V189.464C434.162 189.56 434.582 189.644 435.11 189.716C435.638 189.812 436.154 189.86 436.658 189.86C438.53 189.86 439.934 189.332 440.87 188.276C441.83 187.22 442.31 185.816 442.31 184.064V180.644H442.022C441.518 181.772 440.702 182.732 439.574 183.524C438.47 184.292 437.126 184.676 435.542 184.676C433.958 184.676 432.566 184.268 431.366 183.452C430.166 182.636 429.23 181.508 428.558 180.068C427.91 178.604 427.586 176.936 427.586 175.064C427.586 173.192 427.91 171.536 428.558 170.096C429.23 168.632 430.166 167.492 431.366 166.676C432.566 165.86 433.958 165.452 435.542 165.452C437.198 165.452 438.578 165.884 439.682 166.748C440.81 167.588 441.602 168.572 442.058 169.7H442.31V166.064H445.442V184.064C445.442 185.408 445.166 186.728 444.614 188.024C444.086 189.32 443.186 190.4 441.914 191.264C440.642 192.152 438.986 192.596 436.946 192.596ZM436.55 182.012C437.774 182.012 438.818 181.688 439.682 181.04C440.546 180.368 441.182 179.504 441.59 178.448C442.022 177.368 442.238 176.216 442.238 174.992C442.238 173.792 442.022 172.676 441.59 171.644C441.182 170.612 440.546 169.772 439.682 169.124C438.842 168.476 437.798 168.152 436.55 168.152C434.702 168.152 433.286 168.824 432.302 170.168C431.342 171.488 430.862 173.096 430.862 174.992C430.862 176.24 431.066 177.404 431.474 178.484C431.906 179.54 432.542 180.392 433.382 181.04C434.246 181.688 435.302 182.012 436.55 182.012Z" fill="#23BDFF"/>
<path d="M458.039 185.252C456.359 185.252 454.919 184.82 453.719 183.956C452.543 183.092 451.643 181.916 451.019 180.428C450.395 178.94 450.083 177.26 450.083 175.388C450.083 173.516 450.395 171.836 451.019 170.348C451.667 168.836 452.591 167.66 453.791 166.82C455.015 165.956 456.467 165.524 458.147 165.524C459.827 165.524 461.183 165.92 462.215 166.712C463.247 167.504 464.027 168.452 464.555 169.556H464.807V166.028H467.939V185H464.807V181.112H464.555C463.979 182.24 463.163 183.212 462.107 184.028C461.051 184.844 459.695 185.252 458.039 185.252ZM459.011 182.588C460.859 182.588 462.275 181.904 463.259 180.536C464.243 179.144 464.735 177.428 464.735 175.388C464.735 173.348 464.243 171.644 463.259 170.276C462.275 168.884 460.859 168.188 459.011 168.188C457.115 168.188 455.675 168.872 454.691 170.24C453.731 171.608 453.251 173.312 453.251 175.352C453.251 177.416 453.731 179.144 454.691 180.536C455.675 181.904 457.115 182.588 459.011 182.588Z" fill="#23BDFF"/>
<path d="M488.732 185.252C487.052 185.252 485.612 184.82 484.412 183.956C483.236 183.092 482.336 181.916 481.712 180.428C481.088 178.94 480.776 177.26 480.776 175.388C480.776 173.492 481.088 171.8 481.712 170.312C482.336 168.824 483.248 167.66 484.448 166.82C485.648 165.956 487.1 165.524 488.804 165.524C490.484 165.524 491.84 165.932 492.872 166.748C493.928 167.54 494.708 168.476 495.212 169.556H495.5V158H498.596V185H495.5V181.112H495.212C494.636 182.264 493.82 183.248 492.764 184.064C491.732 184.856 490.388 185.252 488.732 185.252ZM489.668 182.588C491.54 182.588 492.968 181.904 493.952 180.536C494.936 179.144 495.428 177.428 495.428 175.388C495.428 173.348 494.936 171.644 493.952 170.276C492.968 168.908 491.54 168.224 489.668 168.224C487.772 168.224 486.344 168.908 485.384 170.276C484.424 171.644 483.944 173.348 483.944 175.388C483.944 177.452 484.424 179.168 485.384 180.536C486.368 181.904 487.796 182.588 489.668 182.588Z" fill="#23BDFF"/>
<path d="M504.253 166.028H507.349V185H504.253V166.028ZM505.765 162.5C505.189 162.5 504.709 162.308 504.325 161.924C503.941 161.516 503.749 161.036 503.749 160.484C503.749 159.932 503.941 159.464 504.325 159.08C504.709 158.672 505.189 158.468 505.765 158.468C506.341 158.468 506.821 158.672 507.205 159.08C507.613 159.464 507.817 159.932 507.817 160.484C507.817 161.036 507.613 161.516 507.205 161.924C506.821 162.308 506.341 162.5 505.765 162.5Z" fill="#23BDFF"/>
<path d="M519.949 185.252C518.269 185.252 516.829 184.82 515.629 183.956C514.453 183.092 513.553 181.916 512.929 180.428C512.305 178.94 511.993 177.26 511.993 175.388C511.993 173.516 512.305 171.836 512.929 170.348C513.577 168.836 514.501 167.66 515.701 166.82C516.925 165.956 518.377 165.524 520.057 165.524C521.737 165.524 523.093 165.92 524.125 166.712C525.157 167.504 525.937 168.452 526.465 169.556H526.717V166.028H529.849V185H526.717V181.112H526.465C525.889 182.24 525.073 183.212 524.017 184.028C522.961 184.844 521.605 185.252 519.949 185.252ZM520.921 182.588C522.769 182.588 524.185 181.904 525.169 180.536C526.153 179.144 526.645 177.428 526.645 175.388C526.645 173.348 526.153 171.644 525.169 170.276C524.185 168.884 522.769 168.188 520.921 168.188C519.025 168.188 517.585 168.872 516.601 170.24C515.641 171.608 515.161 173.312 515.161 175.352C515.161 177.416 515.641 179.144 516.601 180.536C517.585 181.904 519.025 182.588 520.921 182.588Z" fill="#23BDFF"/>
<path d="M545.189 185.252C543.533 185.252 542.177 184.844 541.121 184.028C540.065 183.212 539.249 182.24 538.673 181.112H538.421V185H535.289V158H538.421V169.556H538.673C539.201 168.452 539.981 167.504 541.013 166.712C542.045 165.92 543.401 165.524 545.081 165.524C546.785 165.524 548.237 165.956 549.437 166.82C550.661 167.66 551.585 168.836 552.209 170.348C552.833 171.836 553.145 173.516 553.145 175.388C553.145 177.26 552.833 178.94 552.209 180.428C551.585 181.916 550.673 183.092 549.473 183.956C548.273 184.82 546.845 185.252 545.189 185.252ZM544.217 182.588C546.089 182.588 547.505 181.904 548.465 180.536C549.449 179.168 549.941 177.452 549.941 175.388C549.941 173.348 549.461 171.644 548.501 170.276C547.541 168.908 546.113 168.224 544.217 168.224C542.345 168.224 540.917 168.908 539.933 170.276C538.973 171.644 538.493 173.348 538.493 175.388C538.493 177.428 538.985 179.144 539.969 180.536C540.953 181.904 542.369 182.588 544.217 182.588Z" fill="#23BDFF"/>
<path d="M565.571 185.252C563.627 185.252 561.983 184.784 560.639 183.848C559.319 182.912 558.335 181.688 557.687 180.176C557.039 178.664 556.715 177.068 556.715 175.388C556.715 173.684 557.039 172.088 557.687 170.6C558.335 169.088 559.331 167.864 560.675 166.928C562.019 165.992 563.663 165.524 565.607 165.524C568.151 165.524 570.179 166.376 571.691 168.08C573.227 169.784 573.995 172.232 573.995 175.424V176.288H559.811V176.54C559.811 177.596 560.051 178.592 560.531 179.528C561.011 180.464 561.683 181.22 562.547 181.796C563.411 182.372 564.407 182.66 565.535 182.66C566.759 182.66 567.815 182.348 568.703 181.724C569.591 181.1 570.251 180.26 570.683 179.204H573.743C573.239 180.932 572.291 182.372 570.899 183.524C569.531 184.676 567.755 185.252 565.571 185.252ZM570.935 174.092C570.839 171.932 570.311 170.372 569.351 169.412C568.391 168.452 567.131 167.972 565.571 167.972C563.867 167.972 562.511 168.536 561.503 169.664C560.495 170.792 559.955 172.268 559.883 174.092H570.935Z" fill="#23BDFF"/>
<path d="M583.643 168.512V179.528C583.643 180.416 583.679 181.076 583.751 181.508C583.847 181.916 584.075 182.24 584.435 182.48C584.819 182.72 585.431 182.84 586.271 182.84C586.847 182.84 587.471 182.756 588.143 182.588V184.82C587.975 184.892 587.603 184.964 587.027 185.036C586.475 185.108 585.899 185.144 585.299 185.144C583.907 185.144 582.863 184.952 582.167 184.568C581.495 184.16 581.051 183.62 580.835 182.948C580.643 182.252 580.547 181.34 580.547 180.212V168.512H577.019V166.028H580.547V159.8H583.643V166.028H588.143V168.512H583.643Z" fill="#23BDFF"/>
<path d="M600.692 185.252C598.748 185.252 597.104 184.784 595.76 183.848C594.44 182.912 593.456 181.688 592.808 180.176C592.16 178.664 591.836 177.068 591.836 175.388C591.836 173.684 592.16 172.088 592.808 170.6C593.456 169.088 594.452 167.864 595.796 166.928C597.14 165.992 598.784 165.524 600.728 165.524C603.272 165.524 605.3 166.376 606.812 168.08C608.348 169.784 609.116 172.232 609.116 175.424V176.288H594.932V176.54C594.932 177.596 595.172 178.592 595.652 179.528C596.132 180.464 596.804 181.22 597.668 181.796C598.532 182.372 599.528 182.66 600.656 182.66C601.88 182.66 602.936 182.348 603.824 181.724C604.712 181.1 605.372 180.26 605.804 179.204H608.864C608.36 180.932 607.412 182.372 606.02 183.524C604.652 184.676 602.876 185.252 600.692 185.252ZM606.056 174.092C605.96 171.932 605.432 170.372 604.472 169.412C603.512 168.452 602.252 167.972 600.692 167.972C598.988 167.972 597.632 168.536 596.624 169.664C595.616 170.792 595.076 172.268 595.004 174.092H606.056Z" fill="#23BDFF"/>
<path d="M620.168 185.252C618.632 185.252 617.3 184.952 616.172 184.352C615.044 183.728 614.18 182.936 613.58 181.976C613.004 181.016 612.716 180.008 612.716 178.952V178.772H615.812V178.916C615.812 179.516 615.98 180.116 616.316 180.716C616.652 181.292 617.156 181.772 617.828 182.156C618.5 182.516 619.316 182.696 620.276 182.696C621.428 182.696 622.376 182.42 623.12 181.868C623.888 181.292 624.272 180.512 624.272 179.528C624.272 178.712 623.972 178.064 623.372 177.584C622.796 177.104 622.064 176.792 621.176 176.648L618.692 176.288C617.132 176.048 615.824 175.52 614.768 174.704C613.712 173.864 613.184 172.652 613.184 171.068C613.184 169.316 613.808 167.96 615.056 167C616.328 166.016 617.948 165.524 619.916 165.524C621.38 165.524 622.628 165.8 623.66 166.352C624.716 166.88 625.52 167.588 626.072 168.476C626.624 169.34 626.9 170.288 626.9 171.32V171.464H623.804V171.392C623.804 170.912 623.672 170.408 623.408 169.88C623.168 169.352 622.748 168.896 622.148 168.512C621.548 168.128 620.78 167.936 619.844 167.936C618.692 167.936 617.768 168.224 617.072 168.8C616.376 169.352 616.028 170.084 616.028 170.996C616.028 171.74 616.304 172.352 616.856 172.832C617.408 173.312 618.104 173.624 618.944 173.768L621.644 174.2C623.228 174.464 624.56 175.016 625.64 175.856C626.72 176.672 627.26 177.884 627.26 179.492C627.26 180.644 626.948 181.652 626.324 182.516C625.724 183.38 624.884 184.052 623.804 184.532C622.724 185.012 621.512 185.252 620.168 185.252Z" fill="#23BDFF"/>
<path d="M631.548 166.028H634.608V169.52H634.896C634.944 169.28 635.184 168.848 635.616 168.224C636.048 167.576 636.708 166.964 637.596 166.388C638.484 165.812 639.588 165.524 640.908 165.524C642.3 165.524 643.452 165.848 644.364 166.496C645.3 167.144 645.996 167.84 646.452 168.584C646.908 169.328 647.136 169.796 647.136 169.988H647.424C647.76 169.148 648.42 168.2 649.404 167.144C650.412 166.064 651.948 165.524 654.012 165.524C655.548 165.524 656.832 165.92 657.864 166.712C658.896 167.48 659.652 168.476 660.132 169.7C660.636 170.924 660.888 172.232 660.888 173.624V185H657.828V173.912C657.828 172.088 657.348 170.708 656.388 169.772C655.452 168.836 654.288 168.368 652.896 168.368C651.456 168.368 650.232 168.86 649.224 169.844C648.24 170.804 647.748 172.16 647.748 173.912V185H644.688V173.912C644.688 172.088 644.208 170.708 643.248 169.772C642.312 168.836 641.148 168.368 639.756 168.368C638.316 168.368 637.092 168.86 636.084 169.844C635.1 170.804 634.608 172.16 634.608 173.912V185H631.548V166.028Z" fill="#23BDFF"/>
<path d="M682.56 185H679.428V181.4H679.212C678.708 182.504 677.928 183.44 676.872 184.208C675.84 184.952 674.568 185.324 673.056 185.324C671.472 185.324 670.152 184.94 669.096 184.172C668.04 183.404 667.26 182.408 666.756 181.184C666.276 179.96 666.036 178.628 666.036 177.188V166.028H669.132V176.792C669.132 178.64 669.6 180.068 670.536 181.076C671.472 182.06 672.696 182.552 674.208 182.552C675.792 182.552 677.052 182.024 677.988 180.968C678.948 179.888 679.428 178.496 679.428 176.792V166.028H682.56V185Z" fill="#23BDFF"/>
<path d="M15.694 158.406C45.0441 157.151 68.7893 134.256 71.3795 105.271C69.0845 104.94 66.738 104.769 64.3515 104.769C61.7623 104.769 59.22 104.971 56.7396 105.358C54.3979 127.858 37.4735 146.024 15.5836 150.238C15.5057 151.367 15.466 152.506 15.466 153.655C15.466 155.258 15.5432 156.843 15.694 158.406Z" fill="#00FFFF"/>
<path d="M56.8391 104.296C51.3334 103.593 46.067 102.124 41.1501 100C21.1177 108.655 6.8866 128.193 5.90888 151.162C9.21669 151.158 12.451 150.841 15.5836 150.238C17.1619 127.378 34.4565 108.842 56.7396 105.358C56.7764 105.005 56.8096 104.651 56.8391 104.296Z" fill="#00FFFF"/>
<path d="M71.373 94.658C68.7502 65.7043 45.0163 42.8443 15.6871 41.5937C15.5408 43.1338 15.4661 44.6947 15.4661 46.273C15.4661 47.4465 15.5074 48.6103 15.5887 49.7631C37.4523 53.9742 54.3612 72.1037 56.7319 94.5681C59.2148 94.9567 61.7596 95.1584 64.3515 95.1584C66.7357 95.1584 69.0801 94.9878 71.373 94.658Z" fill="#00FFFF"/>
<path d="M41.1501 100C46.067 97.8757 51.3334 96.4071 56.8391 95.7043C56.8075 95.3244 56.7718 94.9456 56.7319 94.5681C34.4763 91.0849 17.1987 72.5867 15.5887 49.7631C12.4545 49.1594 9.21851 48.8417 5.9089 48.8383C6.88662 71.8073 21.1177 91.3453 41.1501 100Z" fill="#00FFFF"/>
<path d="M41.1501 100C46.067 102.124 51.3334 103.593 56.8391 104.296C56.9568 102.879 57.0169 101.447 57.0169 100C57.0169 98.5533 56.9568 97.1206 56.8391 95.7043C51.3334 96.4071 46.067 97.8757 41.1501 100Z" fill="#00FFFF"/>
<path d="M158.406 15.694C157.151 45.0441 134.256 68.7893 105.271 71.3795C104.94 69.0845 104.769 66.7379 104.769 64.3515C104.769 61.7623 104.971 59.22 105.358 56.7396C127.858 54.3979 146.024 37.4735 150.238 15.5836C151.367 15.5057 152.506 15.4661 153.655 15.4661C155.258 15.4661 156.843 15.5432 158.406 15.694Z" fill="#00FFFF"/>
<path d="M104.296 56.8391C103.593 51.3334 102.124 46.067 100 41.1501C108.655 21.1177 128.193 6.88661 151.162 5.90889C151.158 9.21671 150.841 12.451 150.238 15.5836C127.378 17.1619 108.842 34.4565 105.358 56.7396C105.005 56.7764 104.651 56.8096 104.296 56.8391Z" fill="#00FFFF"/>
<path d="M94.6579 71.373C65.7042 68.7502 42.8443 45.0163 41.5937 15.6871C43.1338 15.5408 44.6947 15.466 46.273 15.466C47.4465 15.466 48.6103 15.5074 49.7631 15.5887C53.9742 37.4523 72.1037 54.3612 94.5681 56.7319C94.9567 59.2148 95.1584 61.7596 95.1584 64.3515C95.1584 66.7357 94.9878 69.0801 94.6579 71.373Z" fill="#00FFFF"/>
<path d="M100 41.1501C97.8757 46.067 96.4071 51.3334 95.7043 56.8391C95.3244 56.8075 94.9456 56.7718 94.5681 56.7319C91.0849 34.4763 72.5867 17.1987 49.7631 15.5887C49.1594 12.4545 48.8417 9.2185 48.8383 5.9089C71.8074 6.88661 91.3452 21.1177 100 41.1501Z" fill="#00FFFF"/>
<path d="M100 41.1501C102.124 46.067 103.593 51.3334 104.296 56.8391C102.879 56.9568 101.447 57.0169 100 57.0169C98.5533 57.0169 97.1206 56.9568 95.7043 56.8391C96.4071 51.3334 97.8757 46.067 100 41.1501Z" fill="#00FFFF"/>
<path d="M41.594 184.306C42.8489 154.956 65.7441 131.211 94.7293 128.621C95.0597 130.916 95.2307 133.262 95.2307 135.649C95.2307 138.238 95.0294 140.78 94.6416 143.26C72.1415 145.602 53.976 162.527 49.7621 184.416C48.6333 184.494 47.4939 184.534 46.3452 184.534C44.7423 184.534 43.1574 184.457 41.594 184.306Z" fill="#00FFFF"/>
<path d="M95.7043 143.161C96.4071 148.667 97.8757 153.933 100 158.85C91.3452 178.882 71.8073 193.113 48.8383 194.091C48.8417 190.783 49.159 187.549 49.7621 184.416C72.622 182.838 91.1577 165.544 94.6416 143.26C94.9948 143.224 95.349 143.19 95.7043 143.161Z" fill="#00FFFF"/>
<path d="M105.342 128.627C134.296 131.25 157.156 154.984 158.406 184.313C156.866 184.459 155.305 184.534 153.727 184.534C152.554 184.534 151.39 184.493 150.237 184.411C146.026 162.548 127.896 145.639 105.432 143.268C105.043 140.785 104.842 138.24 104.842 135.649C104.842 133.264 105.012 130.92 105.342 128.627Z" fill="#00FFFF"/>
<path d="M100 158.85C102.124 153.933 103.593 148.667 104.296 143.161C104.676 143.193 105.054 143.228 105.432 143.268C108.915 165.524 127.413 182.801 150.237 184.411C150.841 187.546 151.158 190.782 151.162 194.091C128.193 193.113 108.655 178.882 100 158.85Z" fill="#00FFFF"/>
<path d="M100 158.85C97.8757 153.933 96.4071 148.667 95.7043 143.161C97.1206 143.043 98.5533 142.983 100 142.983C101.447 142.983 102.879 143.043 104.296 143.161C103.593 148.667 102.124 153.933 100 158.85Z" fill="#00FFFF"/>
<path d="M184.306 41.594C154.956 42.8489 131.211 65.744 128.621 94.7293C130.916 95.0597 133.262 95.2307 135.649 95.2307C138.238 95.2307 140.78 95.0294 143.26 94.6416C145.602 72.1415 162.527 53.976 184.416 49.7621C184.494 48.6333 184.534 47.4939 184.534 46.3453C184.534 44.7423 184.457 43.1574 184.306 41.594Z" fill="#00FFFF"/>
<path d="M143.161 95.7043C148.667 96.4071 153.933 97.8757 158.85 100C178.882 91.3452 193.113 71.8073 194.091 48.8383C190.783 48.8417 187.549 49.159 184.416 49.7621C182.838 72.622 165.544 91.1577 143.26 94.6416C143.224 94.9948 143.19 95.349 143.161 95.7043Z" fill="#00FFFF"/>
<path d="M128.627 105.342C131.25 134.296 154.984 157.156 184.313 158.406C184.459 156.866 184.534 155.305 184.534 153.727C184.534 152.554 184.493 151.39 184.411 150.237C162.548 146.026 145.639 127.896 143.268 105.432C140.785 105.043 138.24 104.842 135.649 104.842C133.264 104.842 130.92 105.012 128.627 105.342Z" fill="#00FFFF"/>
<path d="M158.85 100C153.933 102.124 148.667 103.593 143.161 104.296C143.193 104.676 143.228 105.054 143.268 105.432C165.524 108.915 182.801 127.413 184.411 150.237C187.546 150.841 190.782 151.158 194.091 151.162C193.113 128.193 178.882 108.655 158.85 100Z" fill="#00FFFF"/>
<path d="M158.85 100C153.933 97.8757 148.667 96.4071 143.161 95.7043C143.043 97.1206 142.983 98.5533 142.983 100C142.983 101.447 143.043 102.879 143.161 104.296C148.667 103.593 153.933 102.124 158.85 100Z" fill="#00FFFF"/>
<path d="M107.204 6.58268C104.991 4.1947 102.581 1.99186 100 0C97.4346 1.97979 95.0382 4.16801 92.8363 6.53929C95.4382 8.4079 97.8491 10.5258 100.034 12.8579C102.212 10.5423 104.614 8.43905 107.204 6.58268Z" fill="#00FFFF"/>
<path d="M193.461 107.164C195.832 104.962 198.02 102.565 200 100C198.008 97.4189 195.805 95.009 193.417 92.796C191.561 95.3864 189.458 97.7879 187.142 99.9661C189.474 102.151 191.592 104.562 193.461 107.164Z" fill="#00FFFF"/>
<path d="M100 200C102.565 198.02 104.962 195.832 107.164 193.461C104.562 191.592 102.151 189.474 99.9661 187.142C97.7879 189.458 95.3864 191.561 92.796 193.417C95.009 195.805 97.4189 198.008 100 200Z" fill="#00FFFF"/>
<path d="M0 100C1.99187 102.581 4.19469 104.991 6.58267 107.204C8.43904 104.614 10.5423 102.212 12.8579 100.034C10.5258 97.8491 8.4079 95.4382 6.53929 92.8363C4.16801 95.0382 1.9798 97.4346 0 100Z" fill="#00FFFF"/>
<path d="M15.694 158.406C45.0441 157.151 68.7893 134.256 71.3795 105.271C69.0845 104.94 66.738 104.769 64.3515 104.769C61.7623 104.769 59.22 104.971 56.7396 105.358C54.3979 127.858 37.4735 146.024 15.5836 150.238C15.5057 151.367 15.466 152.506 15.466 153.655C15.466 155.258 15.5432 156.843 15.694 158.406Z" fill="url(#paint0_linear_308_116)"/>
<path d="M56.8391 104.296C51.3334 103.593 46.067 102.124 41.1501 100C21.1177 108.655 6.8866 128.193 5.90888 151.162C9.21669 151.158 12.451 150.841 15.5836 150.238C17.1619 127.378 34.4565 108.842 56.7396 105.358C56.7764 105.005 56.8096 104.651 56.8391 104.296Z" fill="url(#paint1_linear_308_116)"/>
<path d="M71.373 94.658C68.7502 65.7043 45.0163 42.8443 15.6871 41.5937C15.5408 43.1338 15.4661 44.6947 15.4661 46.273C15.4661 47.4465 15.5074 48.6103 15.5887 49.7631C37.4523 53.9742 54.3612 72.1037 56.7319 94.5681C59.2148 94.9567 61.7596 95.1584 64.3515 95.1584C66.7357 95.1584 69.0801 94.9878 71.373 94.658Z" fill="url(#paint2_linear_308_116)"/>
<path d="M41.1501 100C46.067 97.8757 51.3334 96.4071 56.8391 95.7043C56.8075 95.3244 56.7718 94.9456 56.7319 94.5681C34.4763 91.0849 17.1987 72.5867 15.5887 49.7631C12.4545 49.1594 9.21851 48.8417 5.9089 48.8383C6.88662 71.8073 21.1177 91.3453 41.1501 100Z" fill="url(#paint3_linear_308_116)"/>
<path d="M41.1501 100C46.067 102.124 51.3334 103.593 56.8391 104.296C56.9568 102.879 57.0169 101.447 57.0169 100C57.0169 98.5533 56.9568 97.1206 56.8391 95.7043C51.3334 96.4071 46.067 97.8757 41.1501 100Z" fill="url(#paint4_linear_308_116)"/>
<path d="M158.406 15.694C157.151 45.0441 134.256 68.7893 105.271 71.3795C104.94 69.0845 104.769 66.7379 104.769 64.3515C104.769 61.7623 104.971 59.22 105.358 56.7396C127.858 54.3979 146.024 37.4735 150.238 15.5836C151.367 15.5057 152.506 15.4661 153.655 15.4661C155.258 15.4661 156.843 15.5432 158.406 15.694Z" fill="url(#paint5_linear_308_116)"/>
<path d="M104.296 56.8391C103.593 51.3334 102.124 46.067 100 41.1501C108.655 21.1177 128.193 6.88661 151.162 5.90889C151.158 9.21671 150.841 12.451 150.238 15.5836C127.378 17.1619 108.842 34.4565 105.358 56.7396C105.005 56.7764 104.651 56.8096 104.296 56.8391Z" fill="url(#paint6_linear_308_116)"/>
<path d="M94.6579 71.373C65.7042 68.7502 42.8443 45.0163 41.5937 15.6871C43.1338 15.5408 44.6947 15.466 46.273 15.466C47.4465 15.466 48.6103 15.5074 49.7631 15.5887C53.9742 37.4523 72.1037 54.3612 94.5681 56.7319C94.9567 59.2148 95.1584 61.7596 95.1584 64.3515C95.1584 66.7357 94.9878 69.0801 94.6579 71.373Z" fill="url(#paint7_linear_308_116)"/>
<path d="M100 41.1501C97.8757 46.067 96.4071 51.3334 95.7043 56.8391C95.3244 56.8075 94.9456 56.7718 94.5681 56.7319C91.0849 34.4763 72.5867 17.1987 49.7631 15.5887C49.1594 12.4545 48.8417 9.2185 48.8383 5.9089C71.8074 6.88661 91.3452 21.1177 100 41.1501Z" fill="url(#paint8_linear_308_116)"/>
<path d="M100 41.1501C102.124 46.067 103.593 51.3334 104.296 56.8391C102.879 56.9568 101.447 57.0169 100 57.0169C98.5533 57.0169 97.1206 56.9568 95.7043 56.8391C96.4071 51.3334 97.8757 46.067 100 41.1501Z" fill="url(#paint9_linear_308_116)"/>
<path d="M41.594 184.306C42.8489 154.956 65.7441 131.211 94.7293 128.621C95.0597 130.916 95.2307 133.262 95.2307 135.649C95.2307 138.238 95.0294 140.78 94.6416 143.26C72.1415 145.602 53.976 162.527 49.7621 184.416C48.6333 184.494 47.4939 184.534 46.3452 184.534C44.7423 184.534 43.1574 184.457 41.594 184.306Z" fill="url(#paint10_linear_308_116)"/>
<path d="M95.7043 143.161C96.4071 148.667 97.8757 153.933 100 158.85C91.3452 178.882 71.8073 193.113 48.8383 194.091C48.8417 190.783 49.159 187.549 49.7621 184.416C72.622 182.838 91.1577 165.544 94.6416 143.26C94.9948 143.224 95.349 143.19 95.7043 143.161Z" fill="url(#paint11_linear_308_116)"/>
<path d="M105.342 128.627C134.296 131.25 157.156 154.984 158.406 184.313C156.866 184.459 155.305 184.534 153.727 184.534C152.554 184.534 151.39 184.493 150.237 184.411C146.026 162.548 127.896 145.639 105.432 143.268C105.043 140.785 104.842 138.24 104.842 135.649C104.842 133.264 105.012 130.92 105.342 128.627Z" fill="url(#paint12_linear_308_116)"/>
<path d="M100 158.85C102.124 153.933 103.593 148.667 104.296 143.161C104.676 143.193 105.054 143.228 105.432 143.268C108.915 165.524 127.413 182.801 150.237 184.411C150.841 187.546 151.158 190.782 151.162 194.091C128.193 193.113 108.655 178.882 100 158.85Z" fill="url(#paint13_linear_308_116)"/>
<path d="M100 158.85C97.8757 153.933 96.4071 148.667 95.7043 143.161C97.1206 143.043 98.5533 142.983 100 142.983C101.447 142.983 102.879 143.043 104.296 143.161C103.593 148.667 102.124 153.933 100 158.85Z" fill="url(#paint14_linear_308_116)"/>
<path d="M184.306 41.594C154.956 42.8489 131.211 65.744 128.621 94.7293C130.916 95.0597 133.262 95.2307 135.649 95.2307C138.238 95.2307 140.78 95.0294 143.26 94.6416C145.602 72.1415 162.527 53.976 184.416 49.7621C184.494 48.6333 184.534 47.4939 184.534 46.3453C184.534 44.7423 184.457 43.1574 184.306 41.594Z" fill="url(#paint15_linear_308_116)"/>
<path d="M143.161 95.7043C148.667 96.4071 153.933 97.8757 158.85 100C178.882 91.3452 193.113 71.8073 194.091 48.8383C190.783 48.8417 187.549 49.159 184.416 49.7621C182.838 72.622 165.544 91.1577 143.26 94.6416C143.224 94.9948 143.19 95.349 143.161 95.7043Z" fill="url(#paint16_linear_308_116)"/>
<path d="M128.627 105.342C131.25 134.296 154.984 157.156 184.313 158.406C184.459 156.866 184.534 155.305 184.534 153.727C184.534 152.554 184.493 151.39 184.411 150.237C162.548 146.026 145.639 127.896 143.268 105.432C140.785 105.043 138.24 104.842 135.649 104.842C133.264 104.842 130.92 105.012 128.627 105.342Z" fill="url(#paint17_linear_308_116)"/>
<path d="M158.85 100C153.933 102.124 148.667 103.593 143.161 104.296C143.193 104.676 143.228 105.054 143.268 105.432C165.524 108.915 182.801 127.413 184.411 150.237C187.546 150.841 190.782 151.158 194.091 151.162C193.113 128.193 178.882 108.655 158.85 100Z" fill="url(#paint18_linear_308_116)"/>
<path d="M158.85 100C153.933 97.8757 148.667 96.4071 143.161 95.7043C143.043 97.1206 142.983 98.5533 142.983 100C142.983 101.447 143.043 102.879 143.161 104.296C148.667 103.593 153.933 102.124 158.85 100Z" fill="url(#paint19_linear_308_116)"/>
<path d="M107.204 6.58268C104.991 4.1947 102.581 1.99186 100 0C97.4346 1.97979 95.0382 4.16801 92.8363 6.53929C95.4382 8.4079 97.8491 10.5258 100.034 12.8579C102.212 10.5423 104.614 8.43905 107.204 6.58268Z" fill="url(#paint20_linear_308_116)"/>
<path d="M193.461 107.164C195.832 104.962 198.02 102.565 200 100C198.008 97.4189 195.805 95.009 193.417 92.796C191.561 95.3864 189.458 97.7879 187.142 99.9661C189.474 102.151 191.592 104.562 193.461 107.164Z" fill="url(#paint21_linear_308_116)"/>
<path d="M100 200C102.565 198.02 104.962 195.832 107.164 193.461C104.562 191.592 102.151 189.474 99.9661 187.142C97.7879 189.458 95.3864 191.561 92.796 193.417C95.009 195.805 97.4189 198.008 100 200Z" fill="url(#paint22_linear_308_116)"/>
<path d="M0 100C1.99187 102.581 4.19469 104.991 6.58267 107.204C8.43904 104.614 10.5423 102.212 12.8579 100.034C10.5258 97.8491 8.4079 95.4382 6.53929 92.8363C4.16801 95.0382 1.9798 97.4346 0 100Z" fill="url(#paint23_linear_308_116)"/>
<defs>
<linearGradient id="paint0_linear_308_116" x1="200" y1="100" x2="0" y2="100" gradientUnits="userSpaceOnUse">
<stop stop-color="#00FFFF"/>
<stop offset="1" stop-color="#23BDFF"/>
</linearGradient>
<linearGradient id="paint1_linear_308_116" x1="200" y1="100" x2="0" y2="100" gradientUnits="userSpaceOnUse">
<stop stop-color="#00FFFF"/>
<stop offset="1" stop-color="#23BDFF"/>
</linearGradient>
<linearGradient id="paint2_linear_308_116" x1="200" y1="100" x2="0" y2="100" gradientUnits="userSpaceOnUse">
<stop stop-color="#00FFFF"/>
<stop offset="1" stop-color="#23BDFF"/>
</linearGradient>
<linearGradient id="paint3_linear_308_116" x1="200" y1="100" x2="0" y2="100" gradientUnits="userSpaceOnUse">
<stop stop-color="#00FFFF"/>
<stop offset="1" stop-color="#23BDFF"/>
</linearGradient>
<linearGradient id="paint4_linear_308_116" x1="200" y1="100" x2="0" y2="100" gradientUnits="userSpaceOnUse">
<stop stop-color="#00FFFF"/>
<stop offset="1" stop-color="#23BDFF"/>
</linearGradient>
<linearGradient id="paint5_linear_308_116" x1="200" y1="100" x2="0" y2="100" gradientUnits="userSpaceOnUse">
<stop stop-color="#00FFFF"/>
<stop offset="1" stop-color="#23BDFF"/>
</linearGradient>
<linearGradient id="paint6_linear_308_116" x1="200" y1="100" x2="0" y2="100" gradientUnits="userSpaceOnUse">
<stop stop-color="#00FFFF"/>
<stop offset="1" stop-color="#23BDFF"/>
</linearGradient>
<linearGradient id="paint7_linear_308_116" x1="200" y1="100" x2="0" y2="100" gradientUnits="userSpaceOnUse">
<stop stop-color="#00FFFF"/>
<stop offset="1" stop-color="#23BDFF"/>
</linearGradient>
<linearGradient id="paint8_linear_308_116" x1="200" y1="100" x2="0" y2="100" gradientUnits="userSpaceOnUse">
<stop stop-color="#00FFFF"/>
<stop offset="1" stop-color="#23BDFF"/>
</linearGradient>
<linearGradient id="paint9_linear_308_116" x1="200" y1="100" x2="0" y2="100" gradientUnits="userSpaceOnUse">
<stop stop-color="#00FFFF"/>
<stop offset="1" stop-color="#23BDFF"/>
</linearGradient>
<linearGradient id="paint10_linear_308_116" x1="200" y1="100" x2="0" y2="100" gradientUnits="userSpaceOnUse">
<stop stop-color="#00FFFF"/>
<stop offset="1" stop-color="#23BDFF"/>
</linearGradient>
<linearGradient id="paint11_linear_308_116" x1="200" y1="100" x2="0" y2="100" gradientUnits="userSpaceOnUse">
<stop stop-color="#00FFFF"/>
<stop offset="1" stop-color="#23BDFF"/>
</linearGradient>
<linearGradient id="paint12_linear_308_116" x1="200" y1="100" x2="0" y2="100" gradientUnits="userSpaceOnUse">
<stop stop-color="#00FFFF"/>
<stop offset="1" stop-color="#23BDFF"/>
</linearGradient>
<linearGradient id="paint13_linear_308_116" x1="200" y1="100" x2="0" y2="100" gradientUnits="userSpaceOnUse">
<stop stop-color="#00FFFF"/>
<stop offset="1" stop-color="#23BDFF"/>
</linearGradient>
<linearGradient id="paint14_linear_308_116" x1="200" y1="100" x2="0" y2="100" gradientUnits="userSpaceOnUse">
<stop stop-color="#00FFFF"/>
<stop offset="1" stop-color="#23BDFF"/>
</linearGradient>
<linearGradient id="paint15_linear_308_116" x1="200" y1="100" x2="0" y2="100" gradientUnits="userSpaceOnUse">
<stop stop-color="#00FFFF"/>
<stop offset="1" stop-color="#23BDFF"/>
</linearGradient>
<linearGradient id="paint16_linear_308_116" x1="200" y1="100" x2="0" y2="100" gradientUnits="userSpaceOnUse">
<stop stop-color="#00FFFF"/>
<stop offset="1" stop-color="#23BDFF"/>
</linearGradient>
<linearGradient id="paint17_linear_308_116" x1="200" y1="100" x2="0" y2="100" gradientUnits="userSpaceOnUse">
<stop stop-color="#00FFFF"/>
<stop offset="1" stop-color="#23BDFF"/>
</linearGradient>
<linearGradient id="paint18_linear_308_116" x1="200" y1="100" x2="0" y2="100" gradientUnits="userSpaceOnUse">
<stop stop-color="#00FFFF"/>
<stop offset="1" stop-color="#23BDFF"/>
</linearGradient>
<linearGradient id="paint19_linear_308_116" x1="200" y1="100" x2="0" y2="100" gradientUnits="userSpaceOnUse">
<stop stop-color="#00FFFF"/>
<stop offset="1" stop-color="#23BDFF"/>
</linearGradient>
<linearGradient id="paint20_linear_308_116" x1="200" y1="100" x2="0" y2="100" gradientUnits="userSpaceOnUse">
<stop stop-color="#00FFFF"/>
<stop offset="1" stop-color="#23BDFF"/>
</linearGradient>
<linearGradient id="paint21_linear_308_116" x1="200" y1="100" x2="0" y2="100" gradientUnits="userSpaceOnUse">
<stop stop-color="#00FFFF"/>
<stop offset="1" stop-color="#23BDFF"/>
</linearGradient>
<linearGradient id="paint22_linear_308_116" x1="200" y1="100" x2="0" y2="100" gradientUnits="userSpaceOnUse">
<stop stop-color="#00FFFF"/>
<stop offset="1" stop-color="#23BDFF"/>
</linearGradient>
<linearGradient id="paint23_linear_308_116" x1="200" y1="100" x2="0" y2="100" gradientUnits="userSpaceOnUse">
<stop stop-color="#00FFFF"/>
<stop offset="1" stop-color="#23BDFF"/>
</linearGradient>
</defs>
</svg>
